<svg width="24" height="24" viewBox="0 0 24 24" fill="none" xmlns="http://www.w3.org/2000/svg">
<path d="M8.6059 13.4364C9.41569 13.4364 10.0721 12.7799 10.0721 11.9702C10.0721 11.1604 9.41569 10.5039 8.6059 10.5039C7.79611 10.5039 7.13965 11.1604 7.13965 11.9702C7.13965 12.7799 7.79611 13.4364 8.6059 13.4364Z" fill="#635E7A"/>
<path d="M15.394 13.4364C16.2038 13.4364 16.8602 12.7799 16.8602 11.9702C16.8602 11.1604 16.2038 10.5039 15.394 10.5039C14.5842 10.5039 13.9277 11.1604 13.9277 11.9702C13.9277 12.7799 14.5842 13.4364 15.394 13.4364Z" fill="#635E7A"/>
<path d="M10.3032 16.3739C11.113 16.3739 11.7694 15.7174 11.7694 14.9077C11.7694 14.0979 11.113 13.4414 10.3032 13.4414C9.49338 13.4414 8.83691 14.0979 8.83691 14.9077C8.83691 15.7174 9.49338 16.3739 10.3032 16.3739Z" fill="#635E7A"/>
<path d="M13.6967 10.4979C14.5065 10.4979 15.163 9.84147 15.163 9.03168C15.163 8.22189 14.5065 7.56543 13.6967 7.56543C12.8869 7.56543 12.2305 8.22189 12.2305 9.03168C12.2305 9.84147 12.8869 10.4979 13.6967 10.4979Z" fill="#635E7A"/>
<path d="M13.6967 16.3739C14.5065 16.3739 15.163 15.7174 15.163 14.9077C15.163 14.0979 14.5065 13.4414 13.6967 13.4414C12.8869 13.4414 12.2305 14.0979 12.2305 14.9077C12.2305 15.7174 12.8869 16.3739 13.6967 16.3739Z" fill="#635E7A"/>
<path d="M10.3032 10.4979C11.113 10.4979 11.7694 9.84147 11.7694 9.03168C11.7694 8.22189 11.113 7.56543 10.3032 7.56543C9.49338 7.56543 8.83691 8.22189 8.83691 9.03168C8.83691 9.84147 9.49338 10.4979 10.3032 10.4979Z" fill="#635E7A"/>
<path d="M19.4963 12.7689C19.9209 12.7689 20.265 12.4248 20.265 12.0002C20.265 11.5756 19.9209 11.2314 19.4963 11.2314C19.0717 11.2314 18.7275 11.5756 18.7275 12.0002C18.7275 12.4248 19.0717 12.7689 19.4963 12.7689Z" fill="#635E7A"/>
<path d="M4.5041 12.7689C4.92867 12.7689 5.27285 12.4248 5.27285 12.0002C5.27285 11.5756 4.92867 11.2314 4.5041 11.2314C4.07953 11.2314 3.73535 11.5756 3.73535 12.0002C3.73535 12.4248 4.07953 12.7689 4.5041 12.7689Z" fill="#635E7A"/>
<path d="M1.77754 12.4877C2.04678 12.4877 2.26504 12.2694 2.26504 12.0002C2.26504 11.731 2.04678 11.5127 1.77754 11.5127C1.5083 11.5127 1.29004 11.731 1.29004 12.0002C1.29004 12.2694 1.5083 12.4877 1.77754 12.4877Z" fill="#635E7A"/>
<path d="M22.2229 12.4877C22.4921 12.4877 22.7104 12.2694 22.7104 12.0002C22.7104 11.731 22.4921 11.5127 22.2229 11.5127C21.9536 11.5127 21.7354 11.731 21.7354 12.0002C21.7354 12.2694 21.9536 12.4877 22.2229 12.4877Z" fill="#635E7A"/>
<path d="M15.7482 6.27578C16.1728 6.27578 16.517 5.9316 16.517 5.50703C16.517 5.08246 16.1728 4.73828 15.7482 4.73828C15.3237 4.73828 14.9795 5.08246 14.9795 5.50703C14.9795 5.9316 15.3237 6.27578 15.7482 6.27578Z" fill="#635E7A"/>
<path d="M8.25215 19.2621C8.67672 19.2621 9.0209 18.9179 9.0209 18.4934C9.0209 18.0688 8.67672 17.7246 8.25215 17.7246C7.82758 17.7246 7.4834 18.0688 7.4834 18.4934C7.4834 18.9179 7.82758 19.2621 8.25215 19.2621Z" fill="#635E7A"/>
<path d="M6.88887 21.3393C7.15811 21.3393 7.37637 21.121 7.37637 20.8518C7.37637 20.5825 7.15811 20.3643 6.88887 20.3643C6.61963 20.3643 6.40137 20.5825 6.40137 20.8518C6.40137 21.121 6.61963 21.3393 6.88887 21.3393Z" fill="#635E7A"/>
<path d="M17.1115 3.63516C17.3808 3.63516 17.599 3.4169 17.599 3.14766C17.599 2.87842 17.3808 2.66016 17.1115 2.66016C16.8423 2.66016 16.624 2.87842 16.624 3.14766C16.624 3.4169 16.8423 3.63516 17.1115 3.63516Z" fill="#635E7A"/>
<path d="M8.25215 6.27578C8.67672 6.27578 9.0209 5.9316 9.0209 5.50703C9.0209 5.08246 8.67672 4.73828 8.25215 4.73828C7.82758 4.73828 7.4834 5.08246 7.4834 5.50703C7.4834 5.9316 7.82758 6.27578 8.25215 6.27578Z" fill="#635E7A"/>
<path d="M15.7482 19.2621C16.1728 19.2621 16.517 18.9179 16.517 18.4934C16.517 18.0688 16.1728 17.7246 15.7482 17.7246C15.3237 17.7246 14.9795 18.0688 14.9795 18.4934C14.9795 18.9179 15.3237 19.2621 15.7482 19.2621Z" fill="#635E7A"/>
<path d="M17.1115 21.3393C17.3808 21.3393 17.599 21.121 17.599 20.8518C17.599 20.5825 17.3808 20.3643 17.1115 20.3643C16.8423 20.3643 16.624 20.5825 16.624 20.8518C16.624 21.121 16.8423 21.3393 17.1115 21.3393Z" fill="#635E7A"/>
<path d="M6.88887 3.63516C7.15811 3.63516 7.37637 3.4169 7.37637 3.14766C7.37637 2.87842 7.15811 2.66016 6.88887 2.66016C6.61963 2.66016 6.40137 2.87842 6.40137 3.14766C6.40137 3.4169 6.61963 3.63516 6.88887 3.63516Z" fill="#635E7A"/>
<path d="M12.0002 7.01805C12.489 7.01805 12.8852 6.62182 12.8852 6.13305C12.8852 5.64427 12.489 5.24805 12.0002 5.24805C11.5115 5.24805 11.1152 5.64427 11.1152 6.13305C11.1152 6.62182 11.5115 7.01805 12.0002 7.01805Z" fill="#635E7A"/>
<path d="M12.0002 3.23957C12.3346 3.23957 12.6058 2.96842 12.6058 2.63395C12.6058 2.29947 12.3346 2.02832 12.0002 2.02832C11.6657 2.02832 11.3945 2.29947 11.3945 2.63395C11.3945 2.96842 11.6657 3.23957 12.0002 3.23957Z" fill="#635E7A"/>
<path d="M12.0002 18.7514C12.489 18.7514 12.8852 18.3552 12.8852 17.8664C12.8852 17.3777 12.489 16.9814 12.0002 16.9814C11.5115 16.9814 11.1152 17.3777 11.1152 17.8664C11.1152 18.3552 11.5115 18.7514 12.0002 18.7514Z" fill="#635E7A"/>
<path d="M12.0002 21.971C12.3346 21.971 12.6058 21.6999 12.6058 21.3654C12.6058 21.0309 12.3346 20.7598 12.0002 20.7598C11.6657 20.7598 11.3945 21.0309 11.3945 21.3654C11.3945 21.6999 11.6657 21.971 12.0002 21.971Z" fill="#635E7A"/>
<path d="M6.91918 9.95262C7.40795 9.95262 7.80418 9.55639 7.80418 9.06762C7.80418 8.57885 7.40795 8.18262 6.91918 8.18262C6.43041 8.18262 6.03418 8.57885 6.03418 9.06762C6.03418 9.55639 6.43041 9.95262 6.91918 9.95262Z" fill="#635E7A"/>
<path d="M3.88883 7.92219C4.22331 7.92219 4.49445 7.65104 4.49445 7.31656C4.49445 6.98208 4.22331 6.71094 3.88883 6.71094C3.55435 6.71094 3.2832 6.98208 3.2832 7.31656C3.2832 7.65104 3.55435 7.92219 3.88883 7.92219Z" fill="#635E7A"/>
<path d="M17.0813 15.8179C17.5701 15.8179 17.9663 15.4216 17.9663 14.9329C17.9663 14.4441 17.5701 14.0479 17.0813 14.0479C16.5925 14.0479 16.1963 14.4441 16.1963 14.9329C16.1963 15.4216 16.5925 15.8179 17.0813 15.8179Z" fill="#635E7A"/>
<path d="M20.1115 17.2894C20.446 17.2894 20.7171 17.0182 20.7171 16.6838C20.7171 16.3493 20.446 16.0781 20.1115 16.0781C19.777 16.0781 19.5059 16.3493 19.5059 16.6838C19.5059 17.0182 19.777 17.2894 20.1115 17.2894Z" fill="#635E7A"/>
<path d="M6.91918 15.8179C7.40795 15.8179 7.80418 15.4216 7.80418 14.9329C7.80418 14.4441 7.40795 14.0479 6.91918 14.0479C6.43041 14.0479 6.03418 14.4441 6.03418 14.9329C6.03418 15.4216 6.43041 15.8179 6.91918 15.8179Z" fill="#635E7A"/>
<path d="M3.88883 17.2894C4.22331 17.2894 4.49445 17.0182 4.49445 16.6838C4.49445 16.3493 4.22331 16.0781 3.88883 16.0781C3.55435 16.0781 3.2832 16.3493 3.2832 16.6838C3.2832 17.0182 3.55435 17.2894 3.88883 17.2894Z" fill="#635E7A"/>
<path d="M17.0813 9.95262C17.5701 9.95262 17.9663 9.55639 17.9663 9.06762C17.9663 8.57885 17.5701 8.18262 17.0813 8.18262C16.5925 8.18262 16.1963 8.57885 16.1963 9.06762C16.1963 9.55639 16.5925 9.95262 17.0813 9.95262Z" fill="#635E7A"/>
<path d="M20.1115 7.92219C20.446 7.92219 20.7171 7.65104 20.7171 7.31656C20.7171 6.98208 20.446 6.71094 20.1115 6.71094C19.777 6.71094 19.5059 6.98208 19.5059 7.31656C19.5059 7.65104 19.777 7.92219 20.1115 7.92219Z" fill="#635E7A"/>
</svg>
