<svg width="21" height="21" viewBox="0 0 21 21" fill="none" xmlns="http://www.w3.org/2000/svg">
<path d="M7.46597 11.9515C8.15236 11.9515 8.70879 11.395 8.70879 10.7086C8.70879 10.0223 8.15236 9.46582 7.46597 9.46582C6.77957 9.46582 6.22314 10.0223 6.22314 10.7086C6.22314 11.395 6.77957 11.9515 7.46597 11.9515Z" fill="white"/>
<path d="M13.2194 11.9515C13.9058 11.9515 14.4622 11.395 14.4622 10.7086C14.4622 10.0223 13.9058 9.46582 13.2194 9.46582C12.533 9.46582 11.9766 10.0223 11.9766 10.7086C11.9766 11.395 12.533 11.9515 13.2194 11.9515Z" fill="white"/>
<path d="M8.90444 14.4417C9.59083 14.4417 10.1473 13.8853 10.1473 13.1989C10.1473 12.5125 9.59083 11.9561 8.90444 11.9561C8.21805 11.9561 7.66162 12.5125 7.66162 13.1989C7.66162 13.8853 8.21805 14.4417 8.90444 14.4417Z" fill="white"/>
<path d="M11.7812 9.46123C12.4675 9.46123 13.024 8.9048 13.024 8.21841C13.024 7.53202 12.4675 6.97559 11.7812 6.97559C11.0948 6.97559 10.5383 7.53202 10.5383 8.21841C10.5383 8.9048 11.0948 9.46123 11.7812 9.46123Z" fill="white"/>
<path d="M11.7812 14.4417C12.4675 14.4417 13.024 13.8853 13.024 13.1989C13.024 12.5125 12.4675 11.9561 11.7812 11.9561C11.0948 11.9561 10.5383 12.5125 10.5383 13.1989C10.5383 13.8853 11.0948 14.4417 11.7812 14.4417Z" fill="white"/>
<path d="M8.90444 9.46123C9.59083 9.46123 10.1473 8.9048 10.1473 8.21841C10.1473 7.53202 9.59083 6.97559 8.90444 6.97559C8.21805 6.97559 7.66162 7.53202 7.66162 8.21841C7.66162 8.9048 8.21805 9.46123 8.90444 9.46123Z" fill="white"/>
<path d="M16.6968 11.3852C17.0566 11.3852 17.3484 11.0935 17.3484 10.7336C17.3484 10.3738 17.0566 10.082 16.6968 10.082C16.3369 10.082 16.0452 10.3738 16.0452 10.7336C16.0452 11.0935 16.3369 11.3852 16.6968 11.3852Z" fill="white"/>
<path d="M3.98925 11.3852C4.34913 11.3852 4.64086 11.0935 4.64086 10.7336C4.64086 10.3738 4.34913 10.082 3.98925 10.082C3.62938 10.082 3.33765 10.3738 3.33765 10.7336C3.33765 11.0935 3.62938 11.3852 3.98925 11.3852Z" fill="white"/>
<path d="M1.67811 11.1477C1.90632 11.1477 2.09132 10.9627 2.09132 10.7345C2.09132 10.5063 1.90632 10.3213 1.67811 10.3213C1.44989 10.3213 1.26489 10.5063 1.26489 10.7345C1.26489 10.9627 1.44989 11.1477 1.67811 11.1477Z" fill="white"/>
<path d="M19.0079 11.1477C19.2362 11.1477 19.4212 10.9627 19.4212 10.7345C19.4212 10.5063 19.2362 10.3213 19.0079 10.3213C18.7797 10.3213 18.5947 10.5063 18.5947 10.7345C18.5947 10.9627 18.7797 11.1477 19.0079 11.1477Z" fill="white"/>
<path d="M13.52 5.88232C13.8799 5.88232 14.1716 5.59058 14.1716 5.23071C14.1716 4.87084 13.8799 4.5791 13.52 4.5791C13.1601 4.5791 12.8684 4.87084 12.8684 5.23071C12.8684 5.59058 13.1601 5.88232 13.52 5.88232Z" fill="white"/>
<path d="M7.16601 16.8892C7.52588 16.8892 7.81762 16.5974 7.81762 16.2375C7.81762 15.8777 7.52588 15.5859 7.16601 15.5859C6.80614 15.5859 6.5144 15.8777 6.5144 16.2375C6.5144 16.5974 6.80614 16.8892 7.16601 16.8892Z" fill="white"/>
<path d="M6.01063 18.6497C6.23884 18.6497 6.42384 18.4647 6.42384 18.2365C6.42384 18.0082 6.23884 17.8232 6.01063 17.8232C5.78241 17.8232 5.59741 18.0082 5.59741 18.2365C5.59741 18.4647 5.78241 18.6497 6.01063 18.6497Z" fill="white"/>
<path d="M14.6754 3.64381C14.9036 3.64381 15.0886 3.45881 15.0886 3.2306C15.0886 3.00239 14.9036 2.81738 14.6754 2.81738C14.4472 2.81738 14.2622 3.00239 14.2622 3.2306C14.2622 3.45881 14.4472 3.64381 14.6754 3.64381Z" fill="white"/>
<path d="M7.16601 5.88232C7.52588 5.88232 7.81762 5.59058 7.81762 5.23071C7.81762 4.87084 7.52588 4.5791 7.16601 4.5791C6.80614 4.5791 6.5144 4.87084 6.5144 5.23071C6.5144 5.59058 6.80614 5.88232 7.16601 5.88232Z" fill="white"/>
<path d="M13.52 16.8892C13.8799 16.8892 14.1716 16.5974 14.1716 16.2375C14.1716 15.8777 13.8799 15.5859 13.52 15.5859C13.1601 15.5859 12.8684 15.8777 12.8684 16.2375C12.8684 16.5974 13.1601 16.8892 13.52 16.8892Z" fill="white"/>
<path d="M14.6754 18.6497C14.9036 18.6497 15.0886 18.4647 15.0886 18.2365C15.0886 18.0082 14.9036 17.8232 14.6754 17.8232C14.4472 17.8232 14.2622 18.0082 14.2622 18.2365C14.2622 18.4647 14.4472 18.6497 14.6754 18.6497Z" fill="white"/>
<path d="M6.01063 3.64381C6.23884 3.64381 6.42384 3.45881 6.42384 3.2306C6.42384 3.00239 6.23884 2.81738 6.01063 2.81738C5.78241 2.81738 5.59741 3.00239 5.59741 3.2306C5.59741 3.45881 5.78241 3.64381 6.01063 3.64381Z" fill="white"/>
<path d="M10.3429 6.51103C10.7572 6.51103 11.0931 6.17518 11.0931 5.76088C11.0931 5.34659 10.7572 5.01074 10.3429 5.01074C9.92862 5.01074 9.59277 5.34659 9.59277 5.76088C9.59277 6.17518 9.92862 6.51103 10.3429 6.51103Z" fill="white"/>
<path d="M10.3427 3.30891C10.6262 3.30891 10.856 3.07908 10.856 2.79557C10.856 2.51206 10.6262 2.28223 10.3427 2.28223C10.0592 2.28223 9.82935 2.51206 9.82935 2.79557C9.82935 3.07908 10.0592 3.30891 10.3427 3.30891Z" fill="white"/>
<path d="M10.3429 16.4563C10.7572 16.4563 11.0931 16.1205 11.0931 15.7062C11.0931 15.2919 10.7572 14.9561 10.3429 14.9561C9.92862 14.9561 9.59277 15.2919 9.59277 15.7062C9.59277 16.1205 9.92862 16.4563 10.3429 16.4563Z" fill="white"/>
<path d="M10.3427 19.1859C10.6262 19.1859 10.856 18.956 10.856 18.6725C10.856 18.389 10.6262 18.1592 10.3427 18.1592C10.0592 18.1592 9.82935 18.389 9.82935 18.6725C9.82935 18.956 10.0592 19.1859 10.3427 19.1859Z" fill="white"/>
<path d="M6.03628 8.99833C6.45057 8.99833 6.78642 8.66248 6.78642 8.24819C6.78642 7.8339 6.45057 7.49805 6.03628 7.49805C5.62198 7.49805 5.28613 7.8339 5.28613 8.24819C5.28613 8.66248 5.62198 8.99833 6.03628 8.99833Z" fill="white"/>
<path d="M3.46768 7.27766C3.75119 7.27766 3.98102 7.04783 3.98102 6.76432C3.98102 6.48081 3.75119 6.25098 3.46768 6.25098C3.18418 6.25098 2.95435 6.48081 2.95435 6.76432C2.95435 7.04783 3.18418 7.27766 3.46768 7.27766Z" fill="white"/>
<path d="M14.6498 13.97C15.0641 13.97 15.3999 13.6342 15.3999 13.2199C15.3999 12.8056 15.0641 12.4697 14.6498 12.4697C14.2355 12.4697 13.8997 12.8056 13.8997 13.2199C13.8997 13.6342 14.2355 13.97 14.6498 13.97Z" fill="white"/>
<path d="M17.2182 15.2171C17.5017 15.2171 17.7315 14.9873 17.7315 14.7038C17.7315 14.4203 17.5017 14.1904 17.2182 14.1904C16.9347 14.1904 16.7048 14.4203 16.7048 14.7038C16.7048 14.9873 16.9347 15.2171 17.2182 15.2171Z" fill="white"/>
<path d="M6.03628 13.97C6.45057 13.97 6.78642 13.6342 6.78642 13.2199C6.78642 12.8056 6.45057 12.4697 6.03628 12.4697C5.62198 12.4697 5.28613 12.8056 5.28613 13.2199C5.28613 13.6342 5.62198 13.97 6.03628 13.97Z" fill="white"/>
<path d="M3.46768 15.2171C3.75119 15.2171 3.98102 14.9873 3.98102 14.7038C3.98102 14.4203 3.75119 14.1904 3.46768 14.1904C3.18418 14.1904 2.95435 14.4203 2.95435 14.7038C2.95435 14.9873 3.18418 15.2171 3.46768 15.2171Z" fill="white"/>
<path d="M14.6498 8.99833C15.0641 8.99833 15.3999 8.66248 15.3999 8.24819C15.3999 7.8339 15.0641 7.49805 14.6498 7.49805C14.2355 7.49805 13.8997 7.8339 13.8997 8.24819C13.8997 8.66248 14.2355 8.99833 14.6498 8.99833Z" fill="white"/>
<path d="M17.2182 7.27766C17.5017 7.27766 17.7315 7.04783 17.7315 6.76432C17.7315 6.48081 17.5017 6.25098 17.2182 6.25098C16.9347 6.25098 16.7048 6.48081 16.7048 6.76432C16.7048 7.04783 16.9347 7.27766 17.2182 7.27766Z" fill="white"/>
</svg>
