<svg width="36" height="39" viewBox="0 0 36 39" fill="none" xmlns="http://www.w3.org/2000/svg">
<path d="M20.3721 1.16774C20.3721 0.71381 20.1603 0.5625 19.6156 0.5625C19.0709 0.5625 18.859 0.71381 18.859 1.16774C18.859 1.50062 19.0406 1.8335 19.2222 1.89403C19.434 1.92429 19.7971 1.92429 19.9787 1.89403C20.1905 1.8335 20.3721 1.50062 20.3721 1.16774Z" fill="white"/>
<path d="M22.9444 4.95049C22.7023 4.70839 22.2484 4.49656 21.9457 4.49656C21.6431 4.49656 21.2195 4.64787 20.9774 4.8597C20.7353 5.07154 20.584 5.4952 20.6142 5.85835C20.6445 6.19123 20.826 6.64516 21.0379 6.85699C21.2497 7.06883 21.7339 7.22014 22.0971 7.22014C22.4905 7.22014 22.9141 6.94778 23.0957 6.6149C23.2773 6.28202 23.3983 5.85835 23.3983 5.70704C23.3983 5.55573 23.1865 5.19258 22.9444 4.95049Z" fill="white"/>
<path d="M8.05549 7.8859C8.87256 7.97669 9.02387 8.09774 9.11466 8.88455C9.14492 9.399 9.02387 9.97398 8.81204 10.1858C8.6002 10.3976 8.2068 10.5792 7.9647 10.5792C7.72261 10.5792 7.23841 10.2766 6.90553 9.94372C6.36082 9.399 6.36082 9.21743 6.6937 8.55167C7.02658 7.94643 7.26868 7.79512 8.05549 7.8859Z" fill="white"/>
<path d="M3.36488 8.73324C3.30436 8.49114 2.97147 8.24905 2.60833 8.18852C2.12414 8.09774 1.94257 8.24905 1.94257 8.70298C1.9123 9.06612 2.06361 9.399 2.21492 9.48979C2.36623 9.58057 2.72938 9.55031 3.00174 9.42926C3.24383 9.27795 3.4254 8.97533 3.36488 8.73324Z" fill="white"/>
<path d="M13.6237 9.6411C14.0171 9.6411 14.6526 9.97398 15.0763 10.3976C15.4999 10.8213 15.8328 11.4568 15.8328 11.8502C15.8328 12.2134 15.5302 12.8186 15.1368 13.212C14.7737 13.6054 14.1079 13.8778 13.6237 13.8778C13.1698 13.8778 12.5343 13.6054 12.2014 13.2725C11.8685 12.9397 11.5659 12.2739 11.5356 11.7594C11.5054 11.1542 11.7172 10.67 12.2014 10.2463C12.5948 9.91346 13.2303 9.6411 13.6237 9.6411Z" fill="white"/>
<path d="M23.8522 10.7003C23.4286 10.2766 22.8536 9.94372 22.551 9.94372C22.2181 9.94372 21.6129 10.2161 21.1589 10.5792C20.5537 11.0331 20.3116 11.4568 20.3419 12.0923C20.3721 12.5765 20.6445 13.2423 20.9774 13.5752C21.3102 13.908 21.976 14.1804 22.4905 14.1804C23.0049 14.1804 23.6707 13.908 24.0036 13.5752C24.3364 13.2423 24.6088 12.637 24.6088 12.2134C24.6088 11.7897 24.2759 11.1239 23.8522 10.7003Z" fill="white"/>
<path d="M34.8373 11.2147C35.1097 11.2752 35.3821 11.5476 35.4123 11.8502C35.4729 12.1226 35.2913 12.4555 35.0492 12.6068C34.7768 12.7278 34.4137 12.6673 34.2019 12.4555C33.99 12.2436 33.9295 11.8805 34.0808 11.6081C34.2321 11.3358 34.565 11.1542 34.8373 11.2147Z" fill="white"/>
<path d="M32.719 15.4514C32.5072 15.2396 32.023 15.0883 31.6901 15.0883C31.327 15.0883 30.873 15.3001 30.6915 15.5422C30.5099 15.7843 30.4191 16.329 30.5099 16.7527C30.6007 17.1763 30.9336 17.5697 31.2664 17.6605C31.5993 17.7513 32.144 17.6605 32.4769 17.5092C32.8098 17.3276 33.0822 16.904 33.0822 16.5408C33.0822 16.1474 32.9308 15.6632 32.719 15.4514Z" fill="white"/>
<path d="M17.7393 15.3909C18.1933 15.3909 19.0406 15.633 19.6458 15.9356C20.2511 16.2079 21.0076 16.8435 21.3102 17.3579C21.6129 17.8724 21.8852 18.7802 21.8852 19.4157C21.8852 20.021 21.6734 20.9288 21.4313 21.4433C21.1892 21.9577 20.6142 22.6235 20.1603 22.9564C19.5248 23.4103 18.8893 23.5616 17.6485 23.5616C16.1354 23.5313 15.8631 23.4103 14.8644 22.4117C13.8658 21.413 13.7447 21.1104 13.7145 19.7789C13.7145 18.7197 13.9263 17.9631 14.3802 17.2671C14.7434 16.7224 15.4697 16.0869 15.9539 15.8448C16.4683 15.6027 17.2551 15.4211 17.7393 15.3909Z" fill="white"/>
<path d="M8.94744 17.2066L8.93309 17.2066H8.96335L8.94744 17.2066Z" fill="white"/>
<path d="M8.94744 17.2066C9.48997 17.2108 10.1765 17.4513 10.4764 17.7513C10.7791 18.0237 10.9909 18.6592 10.9909 19.1736C10.9909 19.6881 10.7488 20.3236 10.4462 20.6262C10.1436 20.9591 9.50806 21.1709 8.81204 21.1407C7.9647 21.1407 7.54103 20.9591 7.20815 20.4446C6.96606 20.0815 6.75422 19.4762 6.75422 19.0828C6.75422 18.7197 7.02658 18.1447 7.35946 17.8118C7.71943 17.4519 8.347 17.2108 8.94744 17.2066Z" fill="white"/>
<path d="M26.5153 17.8118C26.8482 17.8118 27.4534 18.0237 27.8468 18.2658C28.3613 18.5986 28.5126 19.0223 28.5126 19.9302C28.5126 20.838 28.3613 21.2617 27.8166 21.5946C27.4534 21.8367 26.8784 22.0485 26.5456 22.0788C26.2127 22.0788 25.6074 21.8367 25.214 21.5341C24.7298 21.1709 24.4877 20.6565 24.4575 19.9604C24.4272 19.2039 24.6088 18.7802 25.1535 18.3566C25.5469 18.0539 26.1522 17.8118 26.5153 17.8118Z" fill="white"/>
<path d="M4.90824 22.0485C4.70649 21.645 4.303 21.4433 3.69776 21.4433C3.032 21.4433 2.69911 21.6248 2.51754 22.109C2.33597 22.5731 2.37632 23.0068 2.63859 23.4103C2.85043 23.7432 3.30436 24.0458 3.6675 24.0761C4.06091 24.1366 4.45431 23.8945 4.75693 23.4103C5.08981 22.8656 5.12008 22.5024 4.90824 22.0485Z" fill="white"/>
<path d="M12.9882 24.7721C13.3816 24.7721 14.0171 25.105 14.4408 25.5286C14.8644 25.9523 15.1973 26.5273 15.1973 26.8299C15.2276 27.1023 14.9552 27.7075 14.5921 28.1917C14.1886 28.7364 13.7145 29.0088 13.1698 29.0088C12.6856 29.0088 12.0198 28.7969 11.6567 28.5548C11.1725 28.2522 10.9304 27.768 10.9001 27.0417C10.8699 26.2852 11.0514 25.8313 11.5659 25.3773C11.9593 25.0444 12.5948 24.7721 12.9882 24.7721Z" fill="white"/>
<path d="M23.4588 26.0734C23.1562 25.7102 22.5812 25.3168 22.1576 25.226C21.6129 25.105 21.1287 25.2563 20.5234 25.68C19.8879 26.1641 19.6761 26.5878 19.7064 27.2838C19.7064 27.8286 19.9485 28.4943 20.2511 28.7667C20.5537 29.0693 21.2497 29.3114 21.7944 29.3114C22.3694 29.3114 23.0049 29.0693 23.3681 28.7062C23.7009 28.3733 23.9733 27.7983 23.9733 27.4352C24.0036 27.0417 23.7615 26.4365 23.4588 26.0734Z" fill="white"/>
<path d="M0.641302 26.2852C0.732088 26.2549 1.00444 26.4668 1.21628 26.7391C1.39785 26.9812 1.5189 27.3444 1.42811 27.4957C1.33733 27.647 1.00444 27.7983 0.671563 27.7983C0.308419 27.7983 0.0360608 27.5865 0.00579835 27.2536C-0.0244641 26.951 0.0663233 26.5878 0.217633 26.497C0.368942 26.376 0.550516 26.2852 0.641302 26.2852Z" fill="white"/>
<path d="M28.4521 29.0693C28.2402 28.8575 27.756 28.7062 27.4232 28.7062C27.06 28.7062 26.6061 28.918 26.4245 29.1601C26.2429 29.4022 26.1522 29.9469 26.2429 30.3706C26.3337 30.7942 26.6666 31.1876 26.9995 31.2784C27.3324 31.3692 27.8771 31.3087 28.21 31.1271C28.5429 30.9455 28.8152 30.5219 28.8152 30.1285C28.8152 29.7653 28.6639 29.2811 28.4521 29.0693Z" fill="white"/>
<path d="M32.8401 29.6745C33.2637 29.7351 33.5058 29.9772 33.5058 30.3706C33.5058 30.7741 33.3041 30.9758 32.9006 30.9758C32.4769 30.9758 32.2651 30.764 32.2348 30.2798C32.144 29.7048 32.2651 29.5837 32.8401 29.6745Z" fill="white"/>
<path d="M14.4408 32.1863C14.1987 31.9442 13.8053 31.7324 13.6237 31.7324C13.4119 31.7324 12.9579 31.8837 12.6553 32.0652C12.3224 32.2468 12.0803 32.6402 12.1106 33.0336C12.1409 33.3968 12.3224 33.881 12.5343 34.0928C12.7461 34.3046 13.2 34.4559 13.5329 34.4559C13.8961 34.4559 14.3197 34.2744 14.5316 34.0928C14.7434 33.881 14.8947 33.4573 14.8947 33.1849C14.8947 32.8823 14.6829 32.4284 14.4408 32.1863Z" fill="white"/>
<path d="M16.0447 37.24C16.317 37.3006 16.5894 37.5729 16.6196 37.8755C16.6802 38.1479 16.4986 38.4808 16.2565 38.6321C15.9841 38.7531 15.621 38.6926 15.4092 38.4808C15.1973 38.2689 15.1368 37.9058 15.2881 37.6334C15.4394 37.3611 15.7723 37.1795 16.0447 37.24Z" fill="white"/>
</svg>
