<svg width="25" height="23" viewBox="0 0 25 23" fill="none" xmlns="http://www.w3.org/2000/svg">
<path d="M24.1431 13.8328C24.4287 13.8501 24.5314 13.7326 24.5505 13.4156C24.5697 13.0986 24.4819 12.9695 24.1963 12.9523C23.9868 12.9396 23.771 13.0326 23.7265 13.136C23.7 13.2581 23.6872 13.4694 23.6999 13.5763C23.7305 13.7018 23.9336 13.8202 24.1431 13.8328Z" fill="white"/>
<path d="M21.6723 15.1859C21.8331 15.0542 21.9824 14.7981 21.993 14.622C22.0037 14.4459 21.9234 14.1936 21.7986 14.0446C21.6738 13.8957 21.4125 13.7915 21.1829 13.7953C20.9724 13.8003 20.6804 13.8887 20.5396 14.0039C20.3989 14.1191 20.2866 14.3952 20.2739 14.6065C20.26 14.8354 20.4165 15.0924 20.6196 15.2107C20.8227 15.329 21.085 15.4156 21.1802 15.4213C21.2754 15.4271 21.5114 15.3176 21.6723 15.1859Z" fill="white"/>
<path d="M20.3488 6.40948C20.263 6.88154 20.1815 6.96499 19.6832 6.9879C19.3584 6.98594 19.0008 6.89363 18.875 6.7623C18.7491 6.63096 18.6487 6.3951 18.6572 6.25421C18.6657 6.11332 18.8732 5.84305 19.0944 5.66198C19.4563 5.3657 19.5706 5.3726 19.9778 5.59165C20.3469 5.80839 20.4336 5.95504 20.3488 6.40948Z" fill="white"/>
<path d="M19.9806 3.64749C20.1351 3.62147 20.2991 3.43695 20.35 3.22792C20.4242 2.94959 20.3353 2.83817 20.0497 2.8209C19.8222 2.78948 19.6075 2.86488 19.545 2.94948C19.4826 3.03408 19.4888 3.24657 19.5554 3.40968C19.6421 3.55633 19.8261 3.6735 19.9806 3.64749Z" fill="white"/>
<path d="M19.0485 9.58322C19.0347 9.81217 18.8028 10.1694 18.5213 10.3998C18.2398 10.6302 17.8282 10.7998 17.5807 10.7848C17.3522 10.771 16.982 10.5719 16.7482 10.328C16.5135 10.1017 16.3655 9.70388 16.3825 9.42209C16.3985 9.15792 16.5922 8.79844 16.8134 8.61738C17.0346 8.43631 17.4642 8.28552 17.789 8.28747C18.1709 8.29288 18.4681 8.43457 18.7177 8.73247C18.9133 8.97408 19.0623 9.35428 19.0485 9.58322Z" fill="white"/>
<path d="M18.0222 15.4956C18.3037 15.2651 18.5334 14.9432 18.5441 14.7671C18.5558 14.5734 18.4057 14.2108 18.1931 13.9328C17.9288 13.5633 17.6707 13.4063 17.2697 13.3997C16.964 13.3989 16.5355 13.5321 16.3143 13.7132C16.0931 13.8942 15.8983 14.2713 15.8802 14.5707C15.8621 14.8701 16.0101 15.2679 16.2079 15.4743C16.4056 15.6807 16.7769 15.8622 17.0435 15.8783C17.3101 15.8944 17.7407 15.726 18.0222 15.4956Z" fill="white"/>
<path d="M17.3121 21.869C17.2644 22.0252 17.0835 22.1733 16.892 22.1794C16.7185 22.2043 16.5154 22.086 16.4287 21.9393C16.3621 21.7762 16.413 21.5672 16.5537 21.4519C16.6945 21.3367 16.9251 21.3153 17.0912 21.4137C17.2572 21.5121 17.3598 21.7128 17.3121 21.869Z" fill="white"/>
<path d="M14.7207 20.475C14.8614 20.3598 14.9737 20.0838 14.9854 19.8901C14.9981 19.6787 14.8808 19.4065 14.7348 19.2916C14.5889 19.1767 14.2493 19.1032 13.9795 19.1399C13.7097 19.1766 13.4505 19.3554 13.3816 19.5457C13.3128 19.7359 13.3508 20.0564 13.4343 20.2559C13.5368 20.4565 13.7938 20.6311 14.0224 20.6449C14.2699 20.6599 14.5799 20.5903 14.7207 20.475Z" fill="white"/>
<path d="M15.2856 11.7597C15.2697 12.0239 15.0875 12.5078 14.8758 12.8485C14.6831 13.1904 14.2566 13.6065 13.9223 13.763C13.5879 13.9196 13.007 14.0436 12.6071 14.0194C12.2263 13.9964 11.6625 13.8386 11.3473 13.6781C11.032 13.5176 10.6333 13.1577 10.4398 12.8809C10.1765 12.4938 10.1037 12.1182 10.1473 11.3961C10.2196 10.5167 10.3053 10.3628 10.9689 9.8196C11.6324 9.2764 11.8271 9.21746 12.666 9.25049C13.3325 9.29078 13.8011 9.44283 14.2232 9.73347C14.5531 9.96553 14.9275 10.4124 15.0628 10.7034C15.197 11.012 15.2836 11.4768 15.2856 11.7597Z" fill="white"/>
<path d="M14.4523 6.57407L14.4528 6.56572L14.4518 6.58333L14.4523 6.57407Z" fill="white"/>
<path d="M14.4523 6.57407C14.4306 6.88965 14.2551 7.28003 14.0558 7.44319C13.8738 7.60894 13.4664 7.70805 13.1427 7.68849C12.819 7.66892 12.4276 7.50386 12.2478 7.31624C12.049 7.12746 11.938 6.74957 11.9816 6.34566C12.0114 5.85254 12.1405 5.61288 12.4759 5.43872C12.713 5.31164 13.1013 5.21138 13.3488 5.22634C13.5773 5.24016 13.9296 5.42053 14.1273 5.62691C14.3412 5.85009 14.4708 6.22448 14.4523 6.57407Z" fill="white"/>
<path d="M13.4535 16.7749C13.4418 16.9687 13.2873 17.3128 13.1211 17.5326C12.8935 17.8193 12.6216 17.8912 12.0503 17.8567C11.479 17.8222 11.2178 17.718 11.0274 17.3884C10.8879 17.1678 10.7748 16.8251 10.7675 16.6303C10.7792 16.4365 10.9528 16.0935 11.1571 15.8761C11.4026 15.6081 11.7349 15.4868 12.1739 15.4956C12.651 15.5068 12.9112 15.6286 13.1587 15.9617C13.3353 16.2022 13.4663 16.5636 13.4535 16.7749Z" fill="white"/>
<path d="M11.5476 4.03926C11.8086 3.93719 11.9497 3.71005 11.971 3.35782C11.9944 2.97037 11.8919 2.76974 11.5936 2.64565C11.308 2.52234 11.0336 2.52932 10.7705 2.66661C10.5536 2.77723 10.3472 3.02989 10.3154 3.24008C10.2635 3.46672 10.402 3.70488 10.696 3.89941C11.0271 4.11385 11.2545 4.14527 11.5476 4.03926Z" fill="white"/>
<path d="M9.54955 8.63792C9.53571 8.86686 9.30389 9.22404 9.02239 9.45449C8.74089 9.68494 8.36738 9.85679 8.17695 9.84528C8.0045 9.85254 7.63323 9.67102 7.34132 9.44127C7.01275 9.18573 6.85804 8.89946 6.8772 8.58245C6.89423 8.30067 7.05094 7.92128 7.21606 7.71915C7.42351 7.44887 7.73671 7.3264 8.1948 7.33641C8.67193 7.34757 8.95118 7.4705 9.21873 7.78716C9.41436 8.02877 9.56339 8.40897 9.54955 8.63792Z" fill="white"/>
<path d="M8.36242 14.682C8.60158 14.5197 8.86936 14.2 8.94139 13.9569C9.03672 13.6445 8.95854 13.357 8.71323 12.9886C8.4309 12.6004 8.17175 12.461 7.73271 12.4521C7.38994 12.4314 6.96249 12.547 6.78046 12.7127C6.57939 12.8773 6.40257 13.2732 6.38341 13.5902C6.36318 13.9248 6.49317 14.3039 6.70891 14.529C6.90667 14.7354 7.2589 14.9158 7.48741 14.9296C7.7339 14.9621 8.12327 14.8443 8.36242 14.682Z" fill="white"/>
<path d="M9.03171 1.39492C9.04756 1.4489 8.90468 1.59935 8.72585 1.71227C8.56712 1.80873 8.33435 1.86537 8.24233 1.80678C8.15031 1.74819 8.06681 1.54871 8.07852 1.35498C8.09129 1.14365 8.23417 0.9932 8.4447 0.988248C8.63619 0.982146 8.86151 1.04879 8.91331 1.1403C8.98416 1.23296 9.0349 1.34208 9.03171 1.39492Z" fill="white"/>
<path d="M6.30157 17.4739C6.44232 17.3587 6.55457 17.0827 6.56628 16.8889C6.57905 16.6776 6.46172 16.4054 6.31576 16.2905C6.16981 16.1756 5.83024 16.1021 5.56045 16.1388C5.29066 16.1755 5.03139 16.3543 4.96256 16.5445C4.89372 16.7348 4.91264 17.0541 5.01519 17.2548C5.11774 17.4554 5.37476 17.63 5.62231 17.645C5.85082 17.6588 6.16082 17.5891 6.30157 17.4739Z" fill="white"/>
<path d="M5.76638 20.0045C5.71339 20.2488 5.55254 20.3805 5.30498 20.3655C5.05108 20.3502 4.93123 20.2251 4.94542 19.9903C4.96032 19.7437 5.10107 19.6285 5.40682 19.6293C5.77182 19.5983 5.84373 19.6734 5.76638 20.0045Z" fill="white"/>
<path d="M4.83302 9.20128C4.99388 9.0696 5.14101 8.84871 5.1474 8.74304C5.15485 8.61976 5.0756 8.34983 4.97199 8.16682C4.86944 7.96619 4.63041 7.81033 4.38179 7.81298C4.15221 7.81678 3.84114 7.90403 3.70039 8.01926C3.55965 8.13448 3.44847 8.3929 3.43676 8.58662C3.42398 8.79796 3.52334 9.05142 3.63014 9.18161C3.75599 9.31295 4.01726 9.41712 4.18865 9.42747C4.37907 9.43898 4.67216 9.33297 4.83302 9.20128Z" fill="white"/>
<path d="M1.59649 9.94248C1.54883 10.0987 1.36786 10.2468 1.17637 10.2529C1.00286 10.2778 0.799776 10.1595 0.713079 10.0128C0.64649 9.84971 0.697347 9.64068 0.838097 9.52545C0.978846 9.41023 1.20949 9.38882 1.37555 9.48724C1.54161 9.58565 1.64416 9.78628 1.59649 9.94248Z" fill="white"/>
</svg>
