<svg width="83" height="11" viewBox="0 0 83 11" fill="none" xmlns="http://www.w3.org/2000/svg">
<path d="M6.77143 1.35671C6.03923 0.624508 5.30702 0.339761 4.16804 0.339761C3.02905 0.339761 2.21549 0.624508 1.40193 1.31603C0.344296 2.25163 0.262939 2.4957 0.262939 5.62791C0.262939 8.76013 0.344296 9.0042 1.36125 9.93979C2.17481 10.6313 2.98837 10.9161 4.12736 10.9161C5.3477 10.9161 6.03923 10.672 6.77143 9.89911C7.34093 9.32962 7.78839 8.51605 7.78839 8.0686C7.78839 7.62114 7.50364 7.25504 7.17822 7.25504C6.85279 7.25504 6.56804 7.41775 6.56804 7.66182C6.56804 7.90588 6.20194 8.4347 5.75448 8.88216C5.30702 9.32962 4.53414 9.69573 4.046 9.69573C3.51719 9.7364 2.78498 9.41098 2.41888 9.0042C1.89006 8.47538 1.68667 7.53978 1.68667 5.62791C1.64599 3.39062 1.80871 2.8618 2.54091 2.29231C3.02905 1.88553 3.84261 1.5601 4.37143 1.5601C4.9816 1.5601 5.59177 1.96689 5.95787 2.57706C6.2833 3.14655 6.85279 3.59401 7.17822 3.59401C7.50364 3.59401 7.78839 3.30926 7.78839 2.98384C7.78839 2.65841 7.34093 1.92621 6.77143 1.35671Z" fill="white"/>
<path fill-rule="evenodd" clip-rule="evenodd" d="M14.785 0.339761C15.924 0.299086 16.941 0.583829 17.6325 1.15332C18.7308 1.92621 18.7715 2.1296 18.7715 5.42452C18.7715 8.55674 18.6901 8.96352 17.7545 9.89911C17.063 10.5906 16.3308 10.9161 15.3138 10.9161C14.5409 10.9161 13.402 10.672 12.7511 10.3466C12.1409 10.0618 11.5308 9.49234 11.3274 9.12623C11.1647 8.76013 11.0426 7.09233 11.0426 5.42452C11.0833 2.73977 11.2053 2.21096 12.0596 1.35671C12.7918 0.583829 13.4833 0.339761 14.785 0.339761ZM14.9884 1.5601C15.9647 1.5601 16.5342 1.84485 16.9816 2.49569C17.3477 3.02451 17.5918 4.32621 17.5918 5.74994C17.5918 7.53978 17.3884 8.27198 16.7782 8.88216C16.3308 9.32961 15.5579 9.69572 15.0698 9.69572C14.5409 9.69572 13.7681 9.45164 13.3206 9.12622C12.6291 8.63809 12.507 8.06859 12.507 5.70926C12.507 3.96011 12.7104 2.65841 13.0765 2.25163C13.3613 1.84485 14.2155 1.5601 14.9884 1.5601Z" fill="white"/>
<path d="M28.7376 8.0686C24.9952 1.31603 24.263 0.339761 23.6528 0.339761C22.88 0.339761 22.8393 0.624508 22.8393 5.62791C22.8393 10.0618 22.9206 10.9161 23.4494 10.9161C23.9376 10.9161 24.0596 10.1432 24.141 6.92961L24.263 2.98384C27.802 9.08555 29.063 10.7533 29.4698 10.794C30.08 10.9161 30.1613 10.3873 30.1613 5.62791C30.1613 1.11264 30.08 0.339761 29.5105 0.339761C29.0223 0.339761 28.9003 1.03129 28.819 4.20418L28.7376 8.0686Z" fill="white"/>
<path d="M37.9715 0.339761C39.2732 0.339761 39.9241 0.54315 40.5749 1.23468C41.0631 1.76349 41.5512 2.4957 41.7139 2.8618C41.8766 3.39062 41.7546 3.59401 41.2258 3.59401C40.8597 3.59401 40.2902 3.14655 40.0054 2.57706C39.6393 1.80417 39.1919 1.5601 38.1749 1.5601C37.4834 1.51943 36.6292 1.76349 36.3444 2.04824C36.1003 2.33299 35.7342 3.30926 35.6122 4.20418C35.4495 5.0991 35.4495 6.52283 35.6122 7.33639C35.7749 8.3669 36.1546 9.03131 36.7512 9.32962C37.28 9.57369 38.1749 9.65504 38.7851 9.53301C39.558 9.3703 40.0054 8.96352 40.1275 8.27199C40.2495 7.70249 40.6156 7.25504 40.941 7.25504C41.3071 7.25504 41.5512 7.62114 41.5512 8.27199C41.5512 8.92284 41.1444 9.61437 40.4122 10.1025C39.802 10.5906 38.8258 10.9567 38.1749 10.9161C37.5647 10.9161 36.5885 10.672 35.9376 10.3466C35.3274 10.0618 34.7173 9.49234 34.5139 9.12623C34.3512 8.76013 34.2291 7.09233 34.2291 5.42452C34.2698 2.73977 34.3919 2.21096 35.2461 1.35671C35.9783 0.583829 36.6698 0.339761 37.9715 0.339761Z" fill="white"/>
<path d="M46.8394 9.69573C46.8394 0.624508 46.7987 0.339761 46.0258 0.339761C45.2529 0.339761 45.2122 0.624508 45.2122 5.62791V10.9161C50.419 10.7533 51.4767 10.55 51.5987 10.1839C51.68 9.85843 51.0292 9.69573 49.28 9.69573H46.8394Z" fill="white"/>
<path fill-rule="evenodd" clip-rule="evenodd" d="M58.3919 0.421118C58.9614 0.502472 59.5716 1.72282 60.914 5.22113C61.8496 7.78385 62.6631 10.1432 62.6631 10.3872C62.7038 10.672 62.4191 10.9161 62.0936 10.9161C61.7682 10.9161 61.1987 10.2652 60.8733 9.49233C60.3038 8.14996 60.1411 8.0686 58.3106 8.0686C56.5207 8.0686 56.358 8.14996 55.6665 9.49233C55.3004 10.2652 54.6902 10.9161 54.3648 10.9161C54.0394 10.9161 53.836 10.672 53.9173 10.3872C53.9987 10.1432 54.8529 7.74317 55.8292 5.0991C57.2936 1.15332 57.7411 0.339761 58.3919 0.421118ZM58.9207 3.83807C59.1648 4.48892 59.4902 5.42452 59.6529 5.95333C59.8563 6.7669 59.775 6.84825 56.6428 6.84825L57.2936 5.09909C57.619 4.1635 58.0258 3.2279 58.1885 3.02451C58.3512 2.82112 58.6767 3.18722 58.9207 3.83807Z" fill="white"/>
<path d="M68.236 8.67877C65.7953 1.07197 65.4292 0.339761 64.7377 0.339761C64.2903 0.339761 63.9242 0.380439 63.9242 0.421118C63.9242 0.488224 64.4777 2.07754 65.2195 4.20742L65.2215 4.21317C65.3784 4.66372 65.5437 5.13839 65.714 5.62791C67.1377 9.65504 67.6665 10.7127 68.236 10.7127C68.8462 10.7127 69.375 9.69573 70.7174 6.03469C71.653 3.47198 72.4259 1.11264 72.4259 0.827898C72.4665 0.583829 72.1818 0.380439 71.8157 0.421118C71.3682 0.502472 70.6767 1.92621 69.7004 4.61096L68.236 8.67877Z" fill="white"/>
<path d="M75.7208 0.339761H78.975C81.5784 0.339761 82.2293 0.461797 82.2293 0.949934C82.2293 1.43807 81.6598 1.5601 76.9411 1.5601V4.81435H78.975C80.5208 4.81435 81.0089 4.97706 81.0089 5.42452C81.0089 5.87198 80.5208 6.03469 76.9411 6.03469V9.69573H79.5852C81.6598 9.69573 82.2293 9.81776 82.2293 10.3059C82.2293 10.794 81.5784 10.9161 75.7208 10.9161V0.339761Z" fill="white"/>
</svg>
