<svg width="45" height="49" viewBox="0 0 45 49" fill="none" xmlns="http://www.w3.org/2000/svg">
<path d="M25.6446 1.02262C25.6446 0.451213 25.378 0.260742 24.6923 0.260742C24.0066 0.260742 23.7399 0.451213 23.7399 1.02262C23.7399 1.44166 23.9685 1.86069 24.197 1.93688C24.4637 1.97498 24.9208 1.97498 25.1494 1.93688C25.416 1.86069 25.6446 1.44166 25.6446 1.02262Z" fill="#3D1A6E"/>
<path d="M28.8826 5.78438C28.5779 5.47963 28.0064 5.21297 27.6255 5.21297C27.2446 5.21297 26.7112 5.40344 26.4065 5.6701C26.1017 5.93676 25.9113 6.47008 25.9494 6.9272C25.9875 7.34624 26.216 7.91765 26.4827 8.18431C26.7493 8.45097 27.3588 8.64144 27.816 8.64144C28.3112 8.64144 28.8445 8.29859 29.0731 7.87956C29.3016 7.46052 29.454 6.9272 29.454 6.73673C29.454 6.54626 29.1874 6.08913 28.8826 5.78438Z" fill="#3D1A6E"/>
<path d="M10.1403 9.47951C11.1689 9.59379 11.3593 9.74617 11.4736 10.7366C11.5117 11.3842 11.3593 12.108 11.0927 12.3747C10.826 12.6413 10.3308 12.8699 10.026 12.8699C9.72129 12.8699 9.11178 12.4889 8.69275 12.0699C8.00705 11.3842 8.00705 11.1556 8.42609 10.3176C8.84512 9.55569 9.14988 9.36522 10.1403 9.47951Z" fill="#3D1A6E"/>
<path d="M4.23574 10.5461C4.15955 10.2414 3.74052 9.93664 3.28339 9.86045C2.67388 9.74617 2.44532 9.93664 2.44532 10.508C2.40723 10.9652 2.59769 11.3842 2.78817 11.4985C2.97864 11.6128 3.43577 11.5747 3.77861 11.4223C4.08337 11.2318 4.31193 10.8509 4.23574 10.5461Z" fill="#3D1A6E"/>
<path d="M17.1496 11.689C17.6449 11.689 18.4448 12.108 18.9781 12.6413C19.5115 13.1746 19.9305 13.9746 19.9305 14.4698C19.9305 14.927 19.5496 15.6888 19.0543 16.1841C18.5972 16.6793 17.7591 17.0221 17.1496 17.0221C16.5782 17.0221 15.7782 16.6793 15.3592 16.2603C14.9402 15.8412 14.5592 15.0031 14.5211 14.3555C14.483 13.5937 14.7497 12.9842 15.3592 12.4508C15.8544 12.0318 16.6544 11.689 17.1496 11.689Z" fill="#3D1A6E"/>
<path d="M30.0254 13.0223C29.4921 12.4889 28.7683 12.0699 28.3874 12.0699C27.9683 12.0699 27.2065 12.4127 26.6351 12.8699C25.8732 13.4413 25.5684 13.9746 25.6065 14.7746C25.6446 15.3841 25.9875 16.2222 26.4065 16.6412C26.8255 17.0602 27.6636 17.4031 28.3112 17.4031C28.9588 17.4031 29.7969 17.0602 30.2159 16.6412C30.6349 16.2222 30.9778 15.4603 30.9778 14.927C30.9778 14.3936 30.5587 13.5556 30.0254 13.0223Z" fill="#3D1A6E"/>
<path d="M43.8536 13.6699C44.1964 13.746 44.5393 14.0889 44.5774 14.4698C44.6535 14.8127 44.425 15.2317 44.1202 15.4222C43.7774 15.5746 43.3203 15.4984 43.0536 15.2317C42.7869 14.9651 42.7107 14.5079 42.9012 14.1651C43.0917 13.8222 43.5107 13.5937 43.8536 13.6699Z" fill="#3D1A6E"/>
<path d="M41.187 19.003C40.9203 18.7364 40.3108 18.5459 39.8918 18.5459C39.4347 18.5459 38.8633 18.8126 38.6347 19.1173C38.4061 19.4221 38.2918 20.1078 38.4061 20.6411C38.5204 21.1744 38.9394 21.6696 39.3585 21.7839C39.7775 21.8982 40.4632 21.7839 40.8822 21.5934C41.3013 21.3649 41.6441 20.8315 41.6441 20.3744C41.6441 19.8792 41.4536 19.2697 41.187 19.003Z" fill="#3D1A6E"/>
<path d="M22.3304 18.9268C22.9018 18.9268 23.9685 19.2316 24.7303 19.6125C25.4922 19.9554 26.4446 20.7554 26.8255 21.4029C27.2065 22.0506 27.5493 23.1934 27.5493 23.9933C27.5493 24.7552 27.2827 25.8981 26.9779 26.5456C26.6731 27.1932 25.9494 28.0313 25.378 28.4504C24.578 29.0218 23.778 29.2122 22.2161 29.2122C20.3114 29.1741 19.9686 29.0218 18.7115 27.7647C17.4544 26.5076 17.302 26.1266 17.2639 24.4505C17.2639 23.1172 17.5306 22.1648 18.102 21.2887C18.5591 20.603 19.4734 19.803 20.0829 19.4982C20.7305 19.1935 21.7209 18.9649 22.3304 18.9268Z" fill="#3D1A6E"/>
<path d="M11.2631 21.2125L11.2451 21.2125H11.2831L11.2631 21.2125Z" fill="#3D1A6E"/>
<path d="M11.2631 21.2125C11.9461 21.2178 12.8102 21.5206 13.1878 21.8982C13.5688 22.241 13.8354 23.041 13.8354 23.6886C13.8354 24.3362 13.5307 25.1362 13.1498 25.5171C12.7688 25.9361 11.9688 26.2028 11.0927 26.1647C10.026 26.1647 9.49272 25.9361 9.07369 25.2885C8.76893 24.8314 8.50228 24.0695 8.50228 23.5743C8.50228 23.1172 8.84512 22.3934 9.26416 21.9744C9.71728 21.5212 10.5073 21.2178 11.2631 21.2125Z" fill="#3D1A6E"/>
<path d="M33.3777 21.9744C33.7967 21.9744 34.5586 22.241 35.0538 22.5458C35.7014 22.9648 35.8919 23.4981 35.8919 24.6409C35.8919 25.7838 35.7014 26.3171 35.0157 26.7361C34.5586 27.0409 33.8348 27.3075 33.4158 27.3456C32.9968 27.3456 32.2349 27.0409 31.7397 26.6599C31.1302 26.2028 30.8254 25.5552 30.7873 24.679C30.7492 23.7267 30.9778 23.1934 31.6635 22.6601C32.1587 22.2791 32.9206 21.9744 33.3777 21.9744Z" fill="#3D1A6E"/>
<path d="M6.17854 27.3075C5.92458 26.7996 5.41666 26.5456 4.65478 26.5456C3.81671 26.5456 3.39767 26.7742 3.16911 27.3837C2.94054 27.9678 2.99134 28.5138 3.32148 29.0218C3.58814 29.4408 4.15955 29.8217 4.61668 29.8598C5.11191 29.936 5.60713 29.6313 5.98807 29.0218C6.4071 28.3361 6.4452 27.8789 6.17854 27.3075Z" fill="#3D1A6E"/>
<path d="M16.3497 30.736C16.8449 30.736 17.6449 31.155 18.1782 31.6883C18.7115 32.2217 19.1305 32.9455 19.1305 33.3264C19.1686 33.6692 18.8258 34.4311 18.3686 35.0406C17.8607 35.7263 17.2639 36.0692 16.5782 36.0692C15.9687 36.0692 15.1306 35.8025 14.6735 35.4978C14.064 35.1168 13.7593 34.5073 13.7212 33.5931C13.6831 32.6407 13.9116 32.0693 14.5592 31.4979C15.0545 31.0788 15.8544 30.736 16.3497 30.736Z" fill="#3D1A6E"/>
<path d="M29.5302 32.374C29.1493 31.9169 28.4255 31.4217 27.8922 31.3074C27.2065 31.155 26.597 31.3455 25.8351 31.8788C25.0351 32.4883 24.7684 33.0216 24.8065 33.8978C24.8065 34.5835 25.1113 35.4216 25.4922 35.7644C25.8732 36.1454 26.7493 36.4501 27.435 36.4501C28.1588 36.4501 28.9588 36.1454 29.4159 35.6882C29.835 35.2692 30.1778 34.5454 30.1778 34.0883C30.2159 33.5931 29.9111 32.8312 29.5302 32.374Z" fill="#3D1A6E"/>
<path d="M0.807276 32.6407C0.921558 32.6026 1.2644 32.8693 1.53106 33.2121C1.75963 33.5169 1.912 33.974 1.79772 34.1645C1.68344 34.3549 1.2644 34.5454 0.845369 34.5454C0.38824 34.5454 0.0453937 34.2787 0.00729901 33.8597C-0.0307957 33.4788 0.0834884 33.0216 0.273958 32.9074C0.464428 32.755 0.692994 32.6407 0.807276 32.6407Z" fill="#3D1A6E"/>
<path d="M35.8157 36.1454C35.5491 35.8787 34.9396 35.6882 34.5205 35.6882C34.0634 35.6882 33.492 35.9549 33.2634 36.2596C33.0349 36.5644 32.9206 37.2501 33.0349 37.7834C33.1491 38.3167 33.5682 38.8119 33.9872 38.9262C34.4062 39.0405 35.0919 38.9643 35.511 38.7358C35.93 38.5072 36.2729 37.9739 36.2729 37.4786C36.2729 37.0215 36.0824 36.412 35.8157 36.1454Z" fill="#3D1A6E"/>
<path d="M41.3394 36.9072C41.8727 36.9834 42.1774 37.2882 42.1774 37.7834C42.1774 38.2913 41.9235 38.5453 41.4156 38.5453C40.8822 38.5453 40.6156 38.2786 40.5775 37.6691C40.4632 36.9453 40.6156 36.793 41.3394 36.9072Z" fill="#3D1A6E"/>
<path d="M18.1782 40.069C17.8734 39.7643 17.3782 39.4976 17.1496 39.4976C16.883 39.4976 16.3116 39.6881 15.9306 39.9167C15.5116 40.1452 15.2068 40.6405 15.2449 41.1357C15.283 41.5928 15.5116 42.2023 15.7782 42.469C16.0449 42.7356 16.6163 42.9261 17.0353 42.9261C17.4925 42.9261 18.0258 42.6975 18.2925 42.469C18.5591 42.2023 18.7496 41.669 18.7496 41.3261C18.7496 40.9452 18.4829 40.3738 18.1782 40.069Z" fill="#3D1A6E"/>
<path d="M20.1972 46.4308C20.54 46.5069 20.8828 46.8498 20.9209 47.2307C20.9971 47.5736 20.7686 47.9926 20.4638 48.1831C20.121 48.3355 19.6638 48.2593 19.3972 47.9926C19.1305 47.726 19.0543 47.2688 19.2448 46.926C19.4353 46.5831 19.8543 46.3546 20.1972 46.4308Z" fill="#3D1A6E"/>
</svg>
