<svg width="105" height="14" viewBox="0 0 105 14" fill="none" xmlns="http://www.w3.org/2000/svg">
<path d="M9.17025 1.88457C8.24854 0.962864 7.32683 0.604422 5.89307 0.604422C4.4593 0.604422 3.43518 0.962864 2.41106 1.83336C1.07971 3.0111 0.977295 3.31834 0.977295 7.2612C0.977295 11.2041 1.07971 11.5113 2.35986 12.689C3.38397 13.5595 4.40809 13.918 5.84186 13.918C7.37804 13.918 8.24854 13.6107 9.17025 12.6378C9.88713 11.9209 10.4504 10.8968 10.4504 10.3336C10.4504 9.77029 10.092 9.30944 9.68231 9.30944C9.27266 9.30944 8.91422 9.51426 8.91422 9.8215C8.91422 10.1287 8.45336 10.7944 7.8901 11.3577C7.32683 11.9209 6.35392 12.3818 5.73945 12.3818C5.07377 12.433 4.15206 12.0234 3.69121 11.5113C3.02553 10.8456 2.7695 9.66787 2.7695 7.2612C2.7183 4.44487 2.92312 3.77919 3.84483 3.06231C4.4593 2.55025 5.48342 2.1406 6.1491 2.1406C6.91719 2.1406 7.68527 2.65266 8.14613 3.42075C8.55578 4.13763 9.27266 4.7009 9.68231 4.7009C10.092 4.7009 10.4504 4.34246 10.4504 3.93281C10.4504 3.52316 9.88713 2.60146 9.17025 1.88457Z" fill="#3D1A6E"/>
<path fill-rule="evenodd" clip-rule="evenodd" d="M19.2578 0.604422C20.6916 0.55322 21.9717 0.911658 22.8422 1.62854C24.2248 2.60146 24.276 2.85749 24.276 7.00517C24.276 10.948 24.1736 11.4601 22.9959 12.6378C22.1254 13.5083 21.2036 13.918 19.9235 13.918C18.9506 13.918 17.5168 13.6107 16.6975 13.2011C15.9294 12.8427 15.1613 12.1258 14.9053 11.6649C14.7005 11.2041 14.5469 9.10461 14.5469 7.00517C14.5981 3.62558 14.7517 2.9599 15.827 1.88457C16.7487 0.911658 17.6192 0.604422 19.2578 0.604422ZM19.5138 2.1406C20.7428 2.1406 21.4597 2.49904 22.0229 3.31833C22.4838 3.98401 22.791 5.6226 22.791 7.41481C22.791 9.66787 22.535 10.5896 21.7669 11.3577C21.2036 11.9209 20.2307 12.3818 19.6162 12.3818C18.9506 12.3818 17.9777 12.0745 17.4144 11.6649C16.5439 11.0504 16.3903 10.3335 16.3903 7.3636C16.3903 5.16175 16.6463 3.52316 17.1072 3.0111C17.4656 2.49904 18.5409 2.1406 19.5138 2.1406Z" fill="#3D1A6E"/>
<path d="M36.8215 10.3336C32.1105 1.83336 31.1888 0.604422 30.4207 0.604422C29.4478 0.604422 29.3966 0.962864 29.3966 7.2612C29.3966 12.8426 29.499 13.918 30.1647 13.918C30.7792 13.918 30.9328 12.9451 31.0352 8.89979L31.1888 3.93281C35.6437 11.6137 37.2311 13.7131 37.7432 13.7644C38.5113 13.918 38.6137 13.2523 38.6137 7.2612C38.6137 1.57734 38.5113 0.604422 37.7944 0.604422C37.1799 0.604422 37.0263 1.47493 36.9239 5.46899L36.8215 10.3336Z" fill="#3D1A6E"/>
<path d="M48.4452 0.604422C50.0838 0.604422 50.9031 0.860451 51.7224 1.73095C52.3369 2.39663 52.9513 3.31834 53.1562 3.77919C53.361 4.44487 53.2074 4.7009 52.5417 4.7009C52.0808 4.7009 51.3639 4.13763 51.0055 3.42075C50.5447 2.44784 49.9814 2.1406 48.7012 2.1406C47.8307 2.0894 46.7554 2.39663 46.397 2.75507C46.0897 3.11351 45.6289 4.34246 45.4753 5.46899C45.2704 6.59552 45.2704 8.38773 45.4753 9.41184C45.6801 10.7091 46.158 11.5454 46.909 11.9209C47.5747 12.2282 48.7012 12.3306 49.4693 12.177C50.4422 11.9722 51.0055 11.4601 51.1591 10.5896C51.3127 9.8727 51.7736 9.30944 52.1832 9.30944C52.6441 9.30944 52.9513 9.77029 52.9513 10.5896C52.9513 11.4089 52.4393 12.2794 51.5176 12.8939C50.7495 13.5083 49.5205 13.9692 48.7012 13.918C47.9332 13.918 46.7042 13.6107 45.8849 13.2011C45.1168 12.8427 44.3487 12.1258 44.0927 11.6649C43.8879 11.2041 43.7343 9.10461 43.7343 7.00517C43.7855 3.62558 43.9391 2.9599 45.0144 1.88457C45.9361 0.911658 46.8066 0.604422 48.4452 0.604422Z" fill="#3D1A6E"/>
<path d="M59.6081 12.3818C59.6081 0.962864 59.5569 0.604422 58.584 0.604422C57.6111 0.604422 57.5599 0.962864 57.5599 7.2612V13.918C64.1142 13.7131 65.4456 13.4571 65.5992 12.9963C65.7016 12.5866 64.8823 12.3818 62.6805 12.3818H59.6081Z" fill="#3D1A6E"/>
<path fill-rule="evenodd" clip-rule="evenodd" d="M74.1506 0.706835C74.8675 0.809244 75.6356 2.34543 77.3254 6.74914C78.5031 9.97511 79.5272 12.9451 79.5272 13.2523C79.5784 13.6107 79.22 13.918 78.8103 13.918C78.4007 13.918 77.6838 13.0987 77.2742 12.1258C76.5573 10.436 76.3525 10.3336 74.0482 10.3336C71.7951 10.3336 71.5903 10.436 70.7198 12.1258C70.2589 13.0987 69.4909 13.918 69.0812 13.918C68.6716 13.918 68.4155 13.6107 68.5179 13.2523C68.6204 12.9451 69.6957 9.9239 70.9246 6.59552C72.768 1.62854 73.3313 0.604422 74.1506 0.706835ZM74.8163 5.00813C75.1235 5.82742 75.5331 7.00516 75.738 7.67084C75.994 8.69496 75.8916 8.79737 71.9487 8.79737L72.768 6.59552C73.1777 5.41777 73.6897 4.24004 73.8946 3.98401C74.0994 3.72798 74.509 4.18883 74.8163 5.00813Z" fill="#3D1A6E"/>
<path d="M86.5424 11.1016C83.4701 1.52613 83.0092 0.604422 82.1387 0.604422C81.5755 0.604422 81.1146 0.655629 81.1146 0.706835C81.1146 0.79131 81.8114 2.79196 82.7452 5.47307L82.7477 5.48031C82.9452 6.04746 83.1533 6.64498 83.3677 7.2612C85.1599 12.3306 85.8256 13.6619 86.5424 13.6619C87.3105 13.6619 87.9762 12.3818 89.666 7.77326C90.8437 4.54728 91.8167 1.57734 91.8167 1.21889C91.8679 0.911658 91.5094 0.655629 91.0486 0.706835C90.4853 0.809244 89.6148 2.60146 88.3858 5.98105L86.5424 11.1016Z" fill="#3D1A6E"/>
<path d="M95.9643 0.604422H100.061C103.338 0.604422 104.157 0.758042 104.157 1.37251C104.157 1.98698 103.44 2.1406 97.5005 2.1406V6.23708H100.061C102.007 6.23708 102.621 6.4419 102.621 7.00517C102.621 7.56843 102.007 7.77326 97.5005 7.77326V12.3818H100.829C103.44 12.3818 104.157 12.5354 104.157 13.1499C104.157 13.7644 103.338 13.918 95.9643 13.918V0.604422Z" fill="#3D1A6E"/>
</svg>
