<svg width="32" height="32" viewBox="0 0 32 32" fill="none" xmlns="http://www.w3.org/2000/svg">
<path fill-rule="evenodd" clip-rule="evenodd" d="M21.6251 24.5L20.3126 22.9375C22.8751 22.25 23.8751 20.5 23.8751 20.5C20.6251 23.5625 11.7501 23.6875 8.31262 20.5C8.31262 20.5 9.18762 22.125 11.8126 22.9375L10.3751 24.5C6.00012 24.4375 4.31262 21.5 4.31262 21.5C4.31262 15 7.18762 9.8125 7.18762 9.8125C10.1251 7.75 12.8126 7.75 12.8126 7.75L13.0001 8C9.37512 9 7.81262 10.625 7.81262 10.625C12.0626 7.75 20.8126 8 24.2501 10.625C24.3126 10.5625 22.1876 8.875 18.8751 8L19.1876 7.75C19.1876 7.75 21.8751 7.75 24.8126 9.8125C24.8126 9.8125 27.6876 15 27.6876 21.5C27.6876 21.5 26.0001 24.4375 21.6251 24.5ZM12.2506 19.625C13.3897 19.625 14.3131 18.6456 14.3131 17.4375C14.3131 16.2294 13.3897 15.25 12.2506 15.25C11.1116 15.25 10.1881 16.2294 10.1881 17.4375C10.1881 18.6456 11.1116 19.625 12.2506 19.625ZM21.5619 17.4375C21.5619 18.6456 20.6385 19.625 19.4994 19.625C18.3603 19.625 17.4369 18.6456 17.4369 17.4375C17.4369 16.2294 18.3603 15.25 19.4994 15.25C20.6385 15.25 21.5619 16.2294 21.5619 17.4375Z" fill="white"/>
<rect width="32" height="32"/>
</svg>
