<svg width="15" height="15" viewBox="0 0 15 15" fill="none" xmlns="http://www.w3.org/2000/svg">
<path d="M5.98674 8.5632C6.29595 8.85733 6.29595 9.33999 5.98674 9.63412C5.69262 9.92824 5.20995 9.92824 4.91583 9.63412C4.20946 8.92669 3.81271 7.96784 3.81271 6.96814C3.81271 5.96843 4.20946 5.00959 4.91583 4.30216L7.58558 1.63241C8.29301 0.926041 9.25185 0.529297 10.2516 0.529297C11.2513 0.529297 12.2101 0.926041 12.9175 1.63241C13.6239 2.33984 14.0206 3.29868 14.0206 4.29839C14.0206 5.2981 13.6239 6.25694 12.9175 6.96437L11.7938 8.08808C11.8014 7.46966 11.7033 6.85124 11.4922 6.26299L11.8466 5.90099C12.058 5.69185 12.2259 5.44286 12.3404 5.16842C12.455 4.89398 12.514 4.59955 12.514 4.30216C12.514 4.00477 12.455 3.71034 12.3404 3.4359C12.2259 3.16146 12.058 2.91247 11.8466 2.70333C11.6375 2.49191 11.3885 2.32406 11.114 2.20951C10.8396 2.09496 10.5452 2.03598 10.2478 2.03598C9.9504 2.03598 9.65597 2.09496 9.38153 2.20951C9.10709 2.32406 8.85809 2.49191 8.64895 2.70333L5.98674 5.36554C5.77532 5.57468 5.60748 5.82367 5.49293 6.09811C5.37838 6.37255 5.3194 6.66698 5.3194 6.96437C5.3194 7.26175 5.37838 7.55619 5.49293 7.83063C5.60748 8.10507 5.77532 8.35406 5.98674 8.5632ZM8.11349 5.36554C8.40762 5.07141 8.89029 5.07141 9.18441 5.36554C9.89078 6.07296 10.2875 7.03181 10.2875 8.03151C10.2875 9.03122 9.89078 9.99006 9.18441 10.6975L6.51466 13.3672C5.80723 14.0736 4.84839 14.4704 3.84868 14.4704C2.84898 14.4704 1.89013 14.0736 1.1827 13.3672C0.476334 12.6598 0.0795898 11.701 0.0795898 10.7013C0.0795898 9.70156 0.476334 8.74271 1.1827 8.03529L2.30641 6.91158C2.29887 7.52999 2.39691 8.14841 2.60808 8.7442L2.25362 9.09866C2.0422 9.3078 1.87436 9.5568 1.75981 9.83123C1.64526 10.1057 1.58627 10.4001 1.58627 10.6975C1.58627 10.9949 1.64526 11.2893 1.75981 11.5638C1.87436 11.8382 2.0422 12.0872 2.25362 12.2963C2.46276 12.5077 2.71176 12.6756 2.98619 12.7901C3.26063 12.9047 3.55507 12.9637 3.85245 12.9637C4.14984 12.9637 4.44427 12.9047 4.71871 12.7901C4.99315 12.6756 5.24215 12.5077 5.45129 12.2963L8.11349 9.63412C8.32492 9.42498 8.49276 9.17598 8.60731 8.90154C8.72186 8.6271 8.78084 8.33267 8.78084 8.03529C8.78084 7.7379 8.72186 7.44347 8.60731 7.16903C8.49276 6.89459 8.32492 6.64559 8.11349 6.43645C8.04025 6.36782 7.98186 6.28488 7.94195 6.19278C7.90204 6.10068 7.88144 6.00137 7.88144 5.90099C7.88144 5.80062 7.90204 5.7013 7.94195 5.6092C7.98186 5.5171 8.04025 5.43417 8.11349 5.36554Z" fill="white"/>
</svg>
