<svg width="22" height="24" viewBox="0 0 22 24" fill="none" xmlns="http://www.w3.org/2000/svg">
<path d="M6.6926 5.2277C6.29698 5.22792 5.90953 5.34021 5.57511 5.55157C5.24069 5.76293 4.97298 6.06471 4.80301 6.42194L2.89379 10.425C2.59522 11.0536 2.66594 11.7921 3.07842 12.35L9.85107 21.5465C9.98408 21.7266 10.1575 21.8731 10.3574 21.974C10.5574 22.0749 10.7782 22.1274 11.0021 22.1274C11.226 22.1274 11.4469 22.0749 11.6468 21.974C11.8467 21.8731 12.0201 21.7266 12.1531 21.5465L18.9258 12.35C19.3383 11.7921 19.409 11.0536 19.1104 10.425L17.2012 6.42194C17.0304 6.06535 16.7625 5.76414 16.4283 5.5529C16.094 5.34166 15.707 5.22894 15.3116 5.2277H6.6926ZM15.728 6.08803L13.642 10.4682L11.6149 6.01339H15.3155C15.4609 6.01339 15.5984 6.04481 15.732 6.08803H15.728ZM8.88074 11.7921H13.1235L11.0021 19.8219L8.88074 11.7921ZM8.98288 11.0064L11.0021 6.57123L13.0213 11.0064H8.97895H8.98288ZM10.3932 6.01339L8.36612 10.4682L6.28011 6.08803C6.41368 6.04088 6.55117 6.01339 6.69653 6.01339H10.3971H10.3932ZM5.51406 6.75979C5.54549 6.68908 5.59656 6.63408 5.63977 6.57123L7.75328 11.0064H3.52627C3.54591 10.9239 3.56555 10.8414 3.60484 10.7629L5.51406 6.75979ZM3.71483 11.8825C3.69519 11.855 3.6834 11.8196 3.66376 11.7882H8.07148L10.5346 21.1183C10.3971 20.9729 10.515 21.1183 3.7109 11.8825H3.71483ZM11.4774 21.1183L13.9406 11.7882H18.3483C18.3287 11.8196 18.3208 11.8511 18.2972 11.8825C11.5128 21.0947 11.611 20.9729 11.4735 21.1183H11.4774ZM18.4072 10.759C18.4426 10.8375 18.4662 10.92 18.4858 11.0025H14.2627L16.3762 6.5673C16.4194 6.63015 16.4705 6.68515 16.5019 6.75586L18.4112 10.759H18.4072ZM0.945276 19.6726C0.650642 19.763 0.450291 20.034 0.454219 20.3404C0.458148 20.6469 0.65457 20.9179 0.949204 21.0083C1.66811 21.2283 2.22595 21.7861 2.44594 22.505C2.5363 22.7997 2.80343 23 3.11378 23C3.42413 23 3.69126 22.8036 3.78162 22.505C3.8891 22.1519 4.08187 21.8306 4.3429 21.5696C4.60393 21.3085 4.9252 21.1158 5.27836 21.0083C5.42178 20.9651 5.54744 20.8768 5.63663 20.7565C5.72582 20.6361 5.77377 20.4902 5.77334 20.3404C5.77334 20.0301 5.57692 19.763 5.27836 19.6687C4.9252 19.5612 4.60393 19.3684 4.3429 19.1074C4.08187 18.8464 3.8891 18.5251 3.78162 18.1719C3.67948 17.8302 3.3377 17.622 2.98807 17.6887C2.72879 17.7359 2.52058 17.9205 2.44594 18.1719C2.33846 18.5251 2.14569 18.8464 1.88466 19.1074C1.62363 19.3684 1.30236 19.5612 0.949204 19.6687L0.945276 19.6726ZM3.10985 18.6434C3.26265 19.0271 3.49189 19.3758 3.78364 19.6682C4.07538 19.9606 4.42353 20.1907 4.80694 20.3444C4.42318 20.4972 4.07449 20.7264 3.78207 21.0182C3.48966 21.3099 3.25961 21.6581 3.10592 22.0415C2.95422 21.6575 2.72533 21.3088 2.43342 21.0169C2.1415 20.725 1.79278 20.4961 1.40883 20.3444C1.79295 20.1919 2.14173 19.9623 2.43362 19.6697C2.72552 19.3771 2.95433 19.0278 3.10592 18.6434H3.10985ZM20.3675 15.4809C20.12 15.3945 19.849 15.4495 19.6565 15.6302C19.3867 15.8816 19.0594 16.0628 18.7032 16.1581C18.347 16.2533 17.9729 16.2595 17.6137 16.1763C17.3112 16.1056 17.0048 16.2391 16.8516 16.5102C16.6984 16.7773 16.7376 17.1113 16.9458 17.3352C17.1972 17.6049 17.3785 17.9323 17.4737 18.2885C17.5689 18.6447 17.5751 19.0188 17.4919 19.378C17.4212 19.6805 17.5548 19.9869 17.8219 20.1401C17.9319 20.2029 18.0537 20.2344 18.1715 20.2344C18.3444 20.2344 18.5133 20.1715 18.6469 20.0458C18.9158 19.7932 19.2431 19.6112 19.5996 19.5159C19.956 19.4206 20.3305 19.4151 20.6897 19.4998C20.9882 19.5705 21.2986 19.4369 21.4518 19.1698C21.605 18.9026 21.5696 18.5687 21.3575 18.3448C21.1053 18.0756 20.9236 17.7482 20.8283 17.3919C20.7331 17.0355 20.7273 16.6611 20.8114 16.302C20.89 15.9563 20.6975 15.6067 20.3636 15.4849L20.3675 15.4809ZM18.3051 19.3073C18.4269 18.4823 18.203 17.6416 17.6844 16.9855C18.5094 17.1073 19.3501 16.8834 20.0061 16.3649C19.8843 17.1938 20.1082 18.0305 20.6268 18.6866C19.7979 18.5648 18.9611 18.7887 18.3051 19.3073ZM5.078 1.63709C5.04658 1.28353 4.75194 1.00854 4.39838 1.00068C4.1391 0.988898 3.89554 1.13032 3.7659 1.3621C3.58784 1.68506 3.33313 1.95931 3.02418 2.1607C2.71524 2.3621 2.36152 2.48448 1.99417 2.51707C1.84523 2.53067 1.70457 2.59168 1.59285 2.69112C1.48114 2.79057 1.40425 2.92321 1.37348 3.06958C1.34272 3.21595 1.35969 3.36832 1.42191 3.50433C1.48413 3.64034 1.58832 3.75281 1.71918 3.82524C2.37523 4.18666 2.80736 4.85056 2.87414 5.59697C2.90164 5.90339 3.12556 6.15481 3.42806 6.21766C3.57426 6.2494 3.7268 6.23286 3.86281 6.17053C3.99881 6.10819 4.11092 6.00343 4.18232 5.87196C4.36038 5.549 4.61509 5.27476 4.92404 5.07336C5.23298 4.87196 5.5867 4.74958 5.95405 4.717C6.26047 4.6895 6.51189 4.4695 6.57474 4.16701C6.6376 3.86452 6.5001 3.56203 6.22904 3.40882C5.90608 3.23076 5.63183 2.97605 5.43044 2.6671C5.22904 2.35816 5.10666 2.00444 5.07408 1.63709H5.078ZM3.62841 5.28269C3.55878 4.87556 3.40642 4.48701 3.18075 4.14107C2.95507 3.79512 2.66087 3.49911 2.3163 3.27133C3.14128 3.1299 3.86804 2.65456 4.32767 1.95923C4.46909 2.7842 4.94444 3.51096 5.63977 3.97059C4.8148 4.11202 4.08803 4.58736 3.62841 5.28269ZM19.739 3.79774C19.4965 3.72627 19.2752 3.59654 19.0945 3.41987C18.9137 3.24319 18.7789 3.02495 18.7019 2.7842C18.657 2.64005 18.5603 2.51766 18.4304 2.44074C18.3005 2.36381 18.1466 2.33782 17.9987 2.36778C17.7708 2.411 17.5901 2.57599 17.5233 2.79991C17.4527 3.04216 17.3237 3.26337 17.1477 3.44418C16.9716 3.62499 16.754 3.75988 16.5137 3.83702C16.2544 3.91952 16.0816 4.15916 16.0855 4.43415C16.0855 4.70521 16.2662 4.94092 16.5294 5.01949C17.0244 5.16484 17.4094 5.54197 17.5665 6.03303C17.649 6.28838 17.8847 6.46123 18.1519 6.46123H18.1597C18.4308 6.46123 18.6665 6.28052 18.7451 6.01731C18.8159 5.77454 18.9454 5.55294 19.1222 5.37206C19.299 5.19119 19.5175 5.05661 19.7586 4.9802C20.0179 4.89771 20.1907 4.65807 20.1868 4.38701C20.1829 4.11594 20.0061 3.88024 19.7429 3.80167L19.739 3.79774ZM18.144 5.39662C17.919 4.97502 17.5691 4.63335 17.1423 4.41843C17.563 4.19231 17.9044 3.8427 18.1205 3.41668C18.3455 3.83828 18.6954 4.17995 19.1222 4.39486C18.7006 4.61988 18.3589 4.96979 18.144 5.39662Z" fill="#9596AA"/>
<path d="M16.7494 4.58736H16.7612M6.6926 5.2277C6.29698 5.22792 5.90953 5.34021 5.57511 5.55157C5.24069 5.76293 4.97298 6.06471 4.80301 6.42194L2.89379 10.425C2.59522 11.0536 2.66594 11.7921 3.07842 12.35L9.85107 21.5465C9.98408 21.7266 10.1575 21.8731 10.3574 21.974C10.5574 22.0749 10.7782 22.1274 11.0021 22.1274C11.226 22.1274 11.4469 22.0749 11.6468 21.974C11.8467 21.8731 12.0201 21.7266 12.1531 21.5465L18.9258 12.35C19.3383 11.7921 19.409 11.0536 19.1104 10.425L17.2012 6.42194C17.0304 6.06535 16.7625 5.76414 16.4283 5.5529C16.094 5.34166 15.707 5.22894 15.3116 5.2277H6.6926ZM15.728 6.08803L13.642 10.4682L11.6149 6.01339H15.3155C15.4609 6.01339 15.5984 6.04481 15.732 6.08803H15.728ZM8.88074 11.7921H13.1235L11.0021 19.8219L8.88074 11.7921ZM8.98288 11.0064L11.0021 6.57123L13.0213 11.0064H8.97895H8.98288ZM10.3932 6.01339L8.36612 10.4682L6.28011 6.08803C6.41368 6.04088 6.55117 6.01339 6.69653 6.01339H10.3971H10.3932ZM5.51406 6.75979C5.54549 6.68908 5.59656 6.63408 5.63977 6.57123L7.75328 11.0064H3.52627C3.54591 10.9239 3.56555 10.8415 3.60484 10.7629L5.51406 6.75979ZM3.71483 11.8825C3.69519 11.855 3.6834 11.8196 3.66376 11.7882H8.07148L10.5346 21.1183C10.3971 20.9729 10.515 21.1183 3.7109 11.8825H3.71483ZM11.4774 21.1183L13.9406 11.7882H18.3483C18.3287 11.8196 18.3208 11.8511 18.2972 11.8825C11.5128 21.0947 11.611 20.9729 11.4735 21.1183H11.4774ZM18.4072 10.759C18.4426 10.8375 18.4662 10.92 18.4858 11.0025H14.2627L16.3762 6.5673C16.4194 6.63015 16.4705 6.68515 16.5019 6.75586L18.4112 10.759H18.4072ZM0.945276 19.6726C0.650642 19.763 0.450291 20.034 0.454219 20.3404C0.458148 20.6469 0.65457 20.9179 0.949204 21.0083C1.66811 21.2283 2.22595 21.7861 2.44594 22.505C2.5363 22.7997 2.80343 23 3.11378 23C3.42413 23 3.69126 22.8036 3.78162 22.505C3.8891 22.1519 4.08187 21.8306 4.3429 21.5696C4.60393 21.3085 4.9252 21.1158 5.27836 21.0083C5.42178 20.9651 5.54744 20.8768 5.63663 20.7565C5.72582 20.6361 5.77377 20.4902 5.77334 20.3404C5.77334 20.0301 5.57692 19.763 5.27836 19.6687C4.9252 19.5612 4.60393 19.3684 4.3429 19.1074C4.08187 18.8464 3.8891 18.5251 3.78162 18.1719C3.67948 17.8302 3.3377 17.622 2.98807 17.6887C2.72879 17.7359 2.52058 17.9205 2.44594 18.1719C2.33846 18.5251 2.14569 18.8464 1.88466 19.1074C1.62363 19.3684 1.30236 19.5612 0.949204 19.6687L0.945276 19.6726ZM3.10985 18.6433C3.26265 19.0271 3.49189 19.3758 3.78364 19.6682C4.07538 19.9606 4.42353 20.1907 4.80694 20.3444C4.42318 20.4972 4.07449 20.7264 3.78208 21.0182C3.48966 21.3099 3.25961 21.6581 3.10592 22.0415C2.95422 21.6575 2.72533 21.3088 2.43342 21.0169C2.1415 20.725 1.79278 20.4961 1.40883 20.3444C1.79295 20.1919 2.14173 19.9623 2.43362 19.6697C2.72552 19.3771 2.95433 19.0278 3.10592 18.6433H3.10985ZM20.3675 15.4809C20.12 15.3945 19.849 15.4495 19.6565 15.6302C19.3867 15.8816 19.0594 16.0628 18.7032 16.1581C18.347 16.2533 17.9729 16.2595 17.6137 16.1763C17.3112 16.1056 17.0048 16.2391 16.8516 16.5102C16.6984 16.7773 16.7376 17.1113 16.9458 17.3352C17.1972 17.6049 17.3785 17.9323 17.4737 18.2885C17.5689 18.6447 17.5751 19.0188 17.4919 19.378C17.4212 19.6805 17.5548 19.9869 17.8219 20.1401C17.9319 20.2029 18.0537 20.2344 18.1715 20.2344C18.3444 20.2344 18.5133 20.1715 18.6469 20.0458C18.9158 19.7932 19.2431 19.6112 19.5996 19.5159C19.956 19.4206 20.3305 19.4151 20.6897 19.4998C20.9882 19.5705 21.2986 19.4369 21.4518 19.1698C21.605 18.9026 21.5696 18.5687 21.3575 18.3448C21.1053 18.0756 20.9236 17.7482 20.8283 17.3919C20.7331 17.0355 20.7273 16.6611 20.8114 16.302C20.89 15.9563 20.6975 15.6067 20.3636 15.4849L20.3675 15.4809ZM18.3051 19.3073C18.4269 18.4823 18.203 17.6416 17.6844 16.9855C18.5094 17.1073 19.3501 16.8834 20.0061 16.3648C19.8843 17.1938 20.1083 18.0305 20.6268 18.6866C19.7979 18.5648 18.9611 18.7887 18.3051 19.3073ZM5.078 1.63709C5.04658 1.28353 4.75194 1.00854 4.39838 1.00068C4.1391 0.988898 3.89554 1.13032 3.7659 1.3621C3.58784 1.68506 3.33313 1.95931 3.02418 2.1607C2.71524 2.3621 2.36152 2.48448 1.99417 2.51707C1.84523 2.53067 1.70457 2.59168 1.59285 2.69112C1.48114 2.79057 1.40425 2.92321 1.37348 3.06958C1.34272 3.21595 1.35969 3.36832 1.42191 3.50433C1.48413 3.64034 1.58832 3.75281 1.71918 3.82524C2.37523 4.18666 2.80736 4.85056 2.87414 5.59697C2.90164 5.90339 3.12556 6.15481 3.42806 6.21766C3.57426 6.2494 3.7268 6.23286 3.86281 6.17053C3.99881 6.10819 4.11092 6.00343 4.18232 5.87196C4.36038 5.549 4.61509 5.27476 4.92404 5.07336C5.23298 4.87196 5.5867 4.74958 5.95405 4.717C6.26047 4.6895 6.51189 4.4695 6.57474 4.16701C6.6376 3.86452 6.5001 3.56203 6.22904 3.40882C5.90608 3.23076 5.63183 2.97605 5.43044 2.6671C5.22904 2.35816 5.10666 2.00444 5.07408 1.63709H5.078ZM3.62841 5.28269C3.55878 4.87556 3.40642 4.48701 3.18075 4.14107C2.95507 3.79512 2.66087 3.49911 2.3163 3.27133C3.14128 3.1299 3.86804 2.65456 4.32767 1.95923C4.46909 2.7842 4.94444 3.51096 5.63977 3.97059C4.8148 4.11202 4.08803 4.58736 3.62841 5.28269ZM19.739 3.79774C19.4965 3.72627 19.2752 3.59654 19.0945 3.41987C18.9137 3.24319 18.7789 3.02495 18.7019 2.7842C18.657 2.64005 18.5603 2.51766 18.4304 2.44074C18.3005 2.36381 18.1466 2.33782 17.9987 2.36778C17.7708 2.411 17.5901 2.57599 17.5233 2.79991C17.4527 3.04216 17.3237 3.26337 17.1477 3.44418C16.9716 3.62499 16.754 3.75988 16.5137 3.83702C16.2544 3.91952 16.0816 4.15916 16.0855 4.43415C16.0855 4.70521 16.2662 4.94092 16.5294 5.01949C17.0244 5.16484 17.4094 5.54197 17.5665 6.03303C17.649 6.28838 17.8847 6.46123 18.1519 6.46123H18.1597C18.4308 6.46123 18.6665 6.28052 18.7451 6.01731C18.8159 5.77454 18.9454 5.55294 19.1222 5.37206C19.299 5.19119 19.5175 5.05661 19.7586 4.9802C20.0179 4.89771 20.1907 4.65807 20.1868 4.38701C20.1829 4.11594 20.0061 3.88024 19.7429 3.80167L19.739 3.79774ZM18.144 5.39662C17.919 4.97502 17.5691 4.63335 17.1423 4.41843C17.563 4.19231 17.9044 3.8427 18.1205 3.41668C18.3455 3.83828 18.6954 4.17995 19.1222 4.39486C18.7006 4.61988 18.3589 4.96979 18.144 5.39662Z" stroke="white" stroke-width="0.3"/>
</svg>
