<svg width="13" height="12" viewBox="0 0 13 12" fill="none" xmlns="http://www.w3.org/2000/svg">
<path d="M6.47649 11.8666C4.87861 11.8666 3.52665 11.3136 2.42062 10.2076C1.31501 9.10199 0.762207 7.75024 0.762207 6.15236C0.762207 4.69204 1.2384 3.42474 2.19078 2.35045C3.14316 1.27659 4.36009 0.649714 5.84157 0.46982C6.10612 0.438074 6.31247 0.533312 6.46062 0.755534C6.60877 0.977756 6.60348 1.21056 6.44475 1.45395C6.26485 1.72908 6.12983 2.02008 6.03967 2.32696C5.94993 2.63384 5.90506 2.95659 5.90506 3.29522C5.90506 4.2476 6.2384 5.05712 6.90506 5.72379C7.57173 6.39045 8.38125 6.72379 9.33364 6.72379C9.66168 6.72379 9.98718 6.67617 10.3101 6.58093C10.6327 6.48569 10.9209 6.35342 11.1749 6.1841C11.3971 6.03596 11.6246 6.02791 11.8574 6.15998C12.0902 6.29246 12.1908 6.50156 12.159 6.78728C12.0109 8.2476 11.3893 9.45924 10.2943 10.4222C9.19882 11.3852 7.92623 11.8666 6.47649 11.8666Z" fill="#41FBFB"/>
</svg>
