<svg width="19" height="24" viewBox="0 0 19 24" fill="none" xmlns="http://www.w3.org/2000/svg">
<path fill-rule="evenodd" clip-rule="evenodd" d="M9.1875 0.018782C10.3359 0.028157 11.1469 0.0609696 11.6484 0.112532C12.0609 0.15472 12.6937 0.22972 13.0547 0.281282C13.4156 0.332845 13.9219 0.421907 14.1797 0.47347C14.4375 0.525032 14.8781 0.632845 15.1641 0.712532C15.4453 0.79222 15.8344 0.914095 16.0219 0.989095C16.2047 1.06409 16.5 1.19534 16.6734 1.28441C16.8516 1.36878 17.1 1.52347 17.2312 1.62191C17.3672 1.72503 17.5594 1.91253 17.6672 2.03909C17.775 2.17034 17.9016 2.38597 17.9531 2.52191C18.0469 2.76097 18.0469 2.89691 18.0234 21.3516L17.8969 21.6094C17.8266 21.75 17.6672 21.9703 17.5453 22.0969C17.4234 22.2188 17.2359 22.3828 17.1328 22.4532C17.0297 22.5235 16.8094 22.65 16.6406 22.7344C16.4719 22.8188 16.1766 22.95 15.9844 23.0203C15.7922 23.0953 15.4125 23.2172 15.1406 23.2922C14.8687 23.3719 14.4375 23.475 14.1797 23.5266C13.9219 23.5782 13.425 23.6625 13.0781 23.7141C12.7312 23.7657 12.0656 23.8453 11.6016 23.8922C10.9594 23.9578 10.3547 23.9766 9.07031 23.9766C7.79531 23.9766 7.17187 23.9578 6.51562 23.8922C6.0375 23.8453 5.30156 23.7563 4.875 23.6907C4.44844 23.625 3.83906 23.5078 3.51562 23.4328C3.19219 23.3578 2.72812 23.2313 2.48437 23.1516C2.24062 23.0719 1.80469 22.8985 1.52344 22.7578C1.2375 22.6219 0.9 22.4157 0.773437 22.3078C0.642187 22.2 0.46875 22.0266 0.384375 21.9188C0.304687 21.811 0.192187 21.6141 0.140625 21.4828C0.046875 21.2391 0.046875 21.1172 0.046875 12.0375C0.046875 4.15784 0.05625 2.80316 0.1125 2.60159C0.15 2.47503 0.2625 2.25941 0.360937 2.12816C0.459375 1.99222 0.646875 1.80003 0.773437 1.69222C0.9 1.58441 1.16719 1.41566 1.35937 1.31722C1.55156 1.21409 1.89844 1.05941 2.13281 0.970345C2.3625 0.876595 2.90156 0.721907 3.32812 0.614095C3.75469 0.51097 4.44844 0.375032 4.875 0.309407C5.30156 0.243782 6.0375 0.159407 6.51562 0.11722C6.99375 0.075032 7.40156 0.0328445 7.42969 0.0234695C7.45312 0.0140945 8.24531 0.00940705 9.1875 0.018782ZM6.79687 1.59847C6.39844 1.62659 5.72344 1.70159 5.29687 1.76253C4.87031 1.82347 4.27969 1.93128 3.98437 1.99691C3.68906 2.06253 3.225 2.18909 2.95312 2.27347C2.68125 2.36253 2.2875 2.51722 2.07187 2.62503C1.85156 2.73284 1.65469 2.86409 1.60781 2.93441C1.52344 3.05628 1.52344 3.06097 1.66406 3.16878C1.73906 3.22972 1.92187 3.33753 2.0625 3.40316C2.20312 3.47347 2.49844 3.59066 2.71875 3.66566C2.93906 3.74066 3.32812 3.85316 3.58594 3.91878C3.84375 3.97972 4.35 4.08284 4.71094 4.14847C5.07187 4.20941 5.65312 4.29378 6 4.33128C6.34687 4.37347 6.98906 4.42503 7.42969 4.45316C7.86562 4.47659 8.64844 4.50003 9.16406 4.50003C9.67969 4.50003 10.4062 4.47659 10.7812 4.45316C11.1562 4.42503 11.7984 4.36409 12.2109 4.31253C12.6234 4.26097 13.2656 4.16722 13.6406 4.09691C14.0812 4.01722 14.3766 3.98909 14.4844 4.00784C14.5781 4.02659 14.7187 4.11097 14.8172 4.21409C14.9328 4.32659 15.0016 4.44534 15.0234 4.57034C15.0422 4.67347 15.0422 4.82816 15.0281 4.91253C15.0141 4.99222 14.9297 5.13753 14.85 5.23128C14.7656 5.32034 14.6297 5.41409 14.5547 5.43753C14.475 5.46097 14.1797 5.52191 13.8984 5.57816C13.6125 5.62972 12.9797 5.72816 12.4922 5.78909C12 5.85003 11.1984 5.92503 10.7109 5.95784C10.1578 5.99066 9.33281 6.00003 8.53125 5.98597C7.82344 5.96722 6.89531 5.92503 6.46875 5.88284C6.04219 5.84534 5.4 5.77034 5.03906 5.71409C4.67812 5.66253 4.13906 5.56878 3.84375 5.50316C3.54844 5.44222 3.10312 5.33441 2.85937 5.26878C2.61562 5.19847 2.22187 5.06722 1.98281 4.97347L1.55156 4.80472L1.54687 9.04691C1.78125 9.23909 2.01094 9.37034 2.20312 9.45472C2.39531 9.54378 2.76562 9.67972 3.02344 9.75472C3.28125 9.82972 3.67031 9.93284 3.89062 9.98441C4.11094 10.036 4.53281 10.1203 4.82812 10.1719C5.12344 10.2188 5.65312 10.2938 6 10.3313C6.34687 10.3735 7.04531 10.4297 7.54687 10.4578C8.09531 10.4907 8.93906 10.5 9.65625 10.486C10.3125 10.4672 11.1891 10.425 11.6016 10.3828C12.0141 10.3453 12.6234 10.2703 12.9609 10.2188C13.2937 10.1672 13.8141 10.0688 14.1094 10.0032C14.4047 9.93753 14.8781 9.80628 15.1641 9.71722C15.4453 9.62347 15.8203 9.47816 15.9984 9.39378C16.1719 9.30472 16.3641 9.18284 16.4297 9.11722L16.5469 9.00003V2.95316C16.3125 2.76097 16.0922 2.63441 15.9141 2.55472C15.7312 2.47034 15.4078 2.34847 15.1875 2.27816C14.9672 2.20784 14.5781 2.10003 14.3203 2.03909C14.0625 1.98284 13.5984 1.88909 13.2891 1.83284C12.9797 1.78128 12.4406 1.70628 12.0937 1.66878C11.7469 1.62659 11.1 1.57503 10.6641 1.54691C10.2234 1.52347 9.43594 1.50472 8.90625 1.50941C8.37656 1.51409 7.85156 1.52347 7.73437 1.53284C7.61719 1.53753 7.19531 1.57034 6.79687 1.59847ZM1.54687 21.0469C1.78125 21.2391 2.01094 21.3703 2.20312 21.4547C2.39531 21.5438 2.76562 21.6797 3.02344 21.7547C3.28125 21.8297 3.67031 21.9328 3.89062 21.9844C4.11094 22.036 4.53281 22.1203 4.82812 22.1719C5.12344 22.2188 5.65312 22.2938 6 22.3313C6.34687 22.3735 7.04531 22.4297 7.54687 22.4578C8.09531 22.4907 8.93906 22.5 9.65625 22.486C10.3125 22.4672 11.1891 22.425 11.6016 22.3828C12.0141 22.3453 12.6234 22.2703 12.9609 22.2188C13.2937 22.1672 13.8141 22.0688 14.1094 22.0032C14.4047 21.9375 14.8922 21.8016 15.1875 21.7078C15.4828 21.6094 15.8531 21.4641 16.0078 21.3844C16.1625 21.3094 16.3453 21.1875 16.4156 21.1219L16.5469 21V16.7813C16.3453 16.8844 16.0687 16.9875 15.7969 17.0813C15.525 17.1797 15.1031 17.3063 14.8594 17.3672C14.6156 17.4282 14.1937 17.5219 13.9219 17.5735C13.65 17.625 13.1859 17.7 12.8906 17.7422C12.5953 17.7797 12.0141 17.8453 11.6016 17.8875C11.1891 17.925 10.2703 17.9672 9.5625 17.986C8.76562 18 7.94062 17.9907 7.40625 17.9578C6.92812 17.9297 6.25312 17.8688 5.90625 17.8313C5.55937 17.7891 4.97812 17.7094 4.61719 17.6485C4.25625 17.5875 3.84375 17.5125 3.70312 17.4797C3.51562 17.4375 3.39844 17.3813 3.27656 17.2547C3.17344 17.1563 3.08906 17.0157 3.07031 16.9219C3.05156 16.8328 3.05156 16.6735 3.07031 16.5703C3.09375 16.4391 3.15937 16.3313 3.28594 16.2094C3.38906 16.111 3.53437 16.0172 3.62344 16.0032C3.70781 15.9891 4.06875 16.0266 4.45312 16.0969C4.82812 16.1672 5.46094 16.261 5.85937 16.3125C6.25781 16.3594 6.95625 16.425 7.40625 16.4578C7.92187 16.4907 8.70469 16.5 9.51562 16.486C10.2234 16.4672 11.0672 16.4344 11.3906 16.4063C11.7141 16.3782 12.3234 16.3032 12.75 16.2422C13.1766 16.1813 13.7766 16.0782 14.0859 16.0078C14.3953 15.9422 14.8922 15.8016 15.1875 15.7078C15.4828 15.6094 15.8531 15.4641 16.0078 15.3844C16.1625 15.3094 16.3453 15.1875 16.4203 15.1219L16.5469 15V10.7813C16.3453 10.8844 16.0687 10.9875 15.7969 11.0813C15.525 11.1797 15.1031 11.3063 14.8594 11.3672C14.6156 11.4282 14.1937 11.5219 13.9219 11.5735C13.65 11.625 13.1016 11.7094 12.7031 11.761C12.3047 11.8125 11.6812 11.8828 11.3203 11.9157C10.9266 11.9532 9.99844 11.9766 9 11.9719C7.78125 11.9719 7.11562 11.9485 6.51562 11.8922C6.06562 11.8453 5.4 11.7657 5.03906 11.7141C4.67812 11.6625 4.12969 11.5641 3.82031 11.5032C3.51094 11.4375 3.01406 11.3063 2.71875 11.2172C2.42344 11.1282 2.03437 10.9922 1.86094 10.9219L1.54219 10.786L1.54687 21.0469ZM3.78281 6.75003C3.86719 6.75003 4.00312 6.77816 4.0875 6.81097C4.17187 6.84847 4.29844 6.94222 4.36875 7.02191C4.43906 7.10628 4.50937 7.25159 4.52812 7.34534C4.54219 7.44378 4.54219 7.59847 4.52344 7.68753C4.50469 7.78128 4.41562 7.92191 4.31719 8.02034C4.20469 8.13597 4.08594 8.20472 3.96094 8.22659C3.85781 8.24534 3.69844 8.24534 3.60937 8.22659C3.51094 8.20784 3.37031 8.11878 3.27187 8.02034C3.15937 7.90784 3.09219 7.78909 3.07031 7.66409C3.05156 7.56097 3.04687 7.40628 3.06562 7.32191C3.07969 7.24222 3.14062 7.10628 3.20156 7.02659C3.2625 6.94222 3.38437 6.84847 3.47344 6.81566C3.55781 6.78284 3.69844 6.75003 3.78281 6.75003ZM3.78281 12.75C3.86719 12.75 4.00312 12.7782 4.0875 12.811C4.17187 12.8485 4.29844 12.9422 4.36875 13.0219C4.43906 13.1063 4.50937 13.2516 4.52812 13.3453C4.54219 13.4438 4.54219 13.5985 4.52344 13.6875C4.50469 13.7813 4.41562 13.9219 4.31719 14.0203C4.20469 14.136 4.08594 14.2047 3.96094 14.2266C3.85781 14.2453 3.69844 14.2453 3.60937 14.2266C3.51094 14.2078 3.37031 14.1188 3.27187 14.0203C3.15937 13.9078 3.09219 13.7891 3.07031 13.6641C3.05156 13.561 3.04687 13.4063 3.06562 13.3219C3.07969 13.2422 3.14062 13.1063 3.20156 13.0266C3.2625 12.9422 3.38437 12.8485 3.47344 12.8157C3.55781 12.7828 3.69844 12.75 3.78281 12.75ZM3.78281 18.75C3.86719 18.75 4.00312 18.7782 4.0875 18.811C4.17187 18.8485 4.29844 18.9422 4.36875 19.0219C4.43906 19.1063 4.50937 19.2516 4.52812 19.3453C4.54219 19.4438 4.54219 19.5985 4.52344 19.6875C4.50469 19.7813 4.41562 19.9219 4.31719 20.0203C4.20469 20.136 4.08594 20.2047 3.96094 20.2266C3.85781 20.2453 3.69844 20.2453 3.60937 20.2266C3.51094 20.2078 3.37031 20.1188 3.27187 20.0203C3.15937 19.9078 3.09219 19.7891 3.07031 19.6641C3.05156 19.561 3.04687 19.4063 3.06562 19.3219C3.07969 19.2422 3.14062 19.1063 3.20156 19.0266C3.2625 18.9422 3.38437 18.8485 3.47344 18.8157C3.55781 18.7828 3.69844 18.75 3.78281 18.75Z" fill="white"/>
</svg>
