<svg width="24" height="24" viewBox="0 0 24 24" fill="none" xmlns="http://www.w3.org/2000/svg">
<path d="M11.9898 0.0049321C12.1736 -0.00017428 12.9804 0.387911 17.8723 2.83387C22.0596 4.92749 23.5813 5.70876 23.6936 5.83642C23.7804 5.92323 23.8876 6.11727 23.9285 6.25515C24 6.46451 24.0051 6.55642 23.9591 6.76578C23.9183 6.93429 23.8366 7.0977 23.7089 7.24068C23.5404 7.43472 23.2647 7.58791 19.8893 9.28323L21.7379 10.2075C23.1983 10.9326 23.617 11.1675 23.7191 11.3003C23.7855 11.3871 23.8825 11.5811 23.9285 11.719C23.9949 11.9283 24 12.0151 23.954 12.2041C23.9234 12.3317 23.8315 12.5309 23.7447 12.6534C23.6017 12.8526 23.4434 12.9394 19.8893 14.7164L21.7021 15.6254C22.9889 16.2739 23.5608 16.5854 23.6732 16.7079C23.7549 16.7998 23.8723 16.9939 23.9234 17.1317C24.0051 17.3615 24.0102 17.4177 23.9489 17.6679C23.903 17.8568 23.8213 18.01 23.6987 18.1479C23.5455 18.3113 22.5753 18.8168 17.857 21.1709C13.2153 23.4943 12.1685 23.9998 12 23.9998C11.8315 23.9998 10.7898 23.4943 6.16339 21.1862C1.97616 19.0926 0.485093 18.3266 0.342115 18.1888C0.224668 18.0713 0.117434 17.9028 0.0714762 17.7445C0.015306 17.5811 -1.31642e-05 17.4279 0.0255188 17.3105C0.0459443 17.2134 0.102114 17.05 0.153178 16.953C0.204242 16.856 0.30637 16.7181 0.382966 16.6466C0.454455 16.5751 1.32765 16.1156 4.11063 14.7164L2.25701 13.7922C0.801689 13.0671 0.382966 12.8322 0.280838 12.7045C0.214455 12.6126 0.117434 12.4237 0.0714762 12.2807C0.00509322 12.0713 -1.31661e-05 11.9845 0.0459443 11.7956C0.0765826 11.6679 0.168497 11.4688 0.255306 11.3513C0.398285 11.1471 0.556583 11.0603 4.11063 9.28323L2.29786 8.37429C1.01105 7.72578 0.439136 7.41429 0.326795 7.29174C0.245093 7.19983 0.127646 7.01089 0.0765826 6.86791C-0.00511955 6.63812 -0.0102259 6.58195 0.0510507 6.33174C0.0970081 6.1428 0.17871 5.98961 0.301263 5.85174C0.454455 5.68834 1.42977 5.1828 6.12765 2.82876C10.8562 0.464507 11.8059 0.0049321 11.9898 0.0049321ZM3.54892 6.55132L12 10.7743L20.4511 6.55132C13.9404 3.29344 12.0204 2.34876 11.9847 2.35387C11.954 2.35387 10.0391 3.29855 7.73616 4.45259L3.54892 6.55132ZM3.61531 11.9947C3.62041 12.0151 5.51488 12.97 7.82297 14.1292L12.0255 16.2279C18.5362 12.97 20.4255 12.0151 20.4255 11.9998C20.4255 11.9896 19.7668 11.6424 18.9549 11.2339L17.4893 10.4986C12.3779 13.0313 12.2706 13.0773 11.9898 13.0773C11.7089 13.0722 11.5711 13.016 9.14041 11.7956C7.73616 11.096 6.5719 10.519 6.55148 10.5241C6.52594 10.5241 5.85701 10.8509 5.06041 11.2441C4.26382 11.6424 3.6102 11.9794 3.61531 11.9947ZM3.54892 17.4534L12 21.6764L20.4511 17.4534L17.4383 15.9471C12.6393 18.3514 12.3504 18.4961 12.0575 18.5048C12.0387 18.5054 12.02 18.5054 12 18.5054C11.6681 18.5054 11.6681 18.5054 9.10977 17.2288L6.55148 15.9471L3.54892 17.4534Z" fill="#9596AA"/>
<path d="M11.9898 0.0049321C12.1736 -0.00017428 12.9804 0.387911 17.8723 2.83387C22.0596 4.92749 23.5813 5.70876 23.6936 5.83642C23.7804 5.92323 23.8876 6.11727 23.9285 6.25515C24 6.46451 24.0051 6.55642 23.9591 6.76578C23.9183 6.93429 23.8366 7.0977 23.7089 7.24068C23.5404 7.43472 23.2647 7.58791 19.8893 9.28323L21.7379 10.2075C23.1983 10.9326 23.617 11.1675 23.7191 11.3003C23.7855 11.3871 23.8825 11.5811 23.9285 11.719C23.9949 11.9283 24 12.0151 23.954 12.2041C23.9234 12.3317 23.8315 12.5309 23.7447 12.6534C23.6017 12.8526 23.4434 12.9394 19.8893 14.7164L21.7021 15.6254C22.9889 16.2739 23.5608 16.5854 23.6732 16.7079C23.7549 16.7998 23.8723 16.9939 23.9234 17.1317C24.0051 17.3615 24.0102 17.4177 23.9489 17.6679C23.903 17.8568 23.8213 18.01 23.6987 18.1479C23.5455 18.3113 22.5753 18.8168 17.857 21.1709C13.2153 23.4943 12.1685 23.9998 12 23.9998C11.8315 23.9998 10.7898 23.4943 6.16339 21.1862C1.97616 19.0926 0.485093 18.3266 0.342115 18.1888C0.224668 18.0713 0.117434 17.9028 0.0714762 17.7445C0.015306 17.5811 -1.31642e-05 17.4279 0.0255188 17.3105C0.0459443 17.2134 0.102114 17.05 0.153178 16.953C0.204242 16.856 0.30637 16.7181 0.382966 16.6466C0.454455 16.5751 1.32765 16.1156 4.11063 14.7164L2.25701 13.7922C0.801689 13.0671 0.382966 12.8322 0.280838 12.7045C0.214455 12.6126 0.117434 12.4237 0.0714762 12.2807C0.00509322 12.0713 -1.31661e-05 11.9845 0.0459443 11.7956C0.0765826 11.6679 0.168497 11.4688 0.255306 11.3513C0.398285 11.1471 0.556583 11.0603 4.11063 9.28323L2.29786 8.37429C1.01105 7.72578 0.439136 7.41429 0.326795 7.29174C0.245093 7.19983 0.127646 7.01089 0.0765826 6.86791C-0.00511955 6.63812 -0.0102259 6.58195 0.0510507 6.33174C0.0970081 6.1428 0.17871 5.98961 0.301263 5.85174C0.454455 5.68834 1.42977 5.1828 6.12765 2.82876C10.8562 0.464507 11.8059 0.0049321 11.9898 0.0049321ZM3.54892 6.55132L12 10.7743L20.4511 6.55132C13.9404 3.29344 12.0204 2.34876 11.9847 2.35387C11.954 2.35387 10.0391 3.29855 7.73616 4.45259L3.54892 6.55132ZM3.61531 11.9947C3.62041 12.0151 5.51488 12.97 7.82297 14.1292L12.0255 16.2279C18.5362 12.97 20.4255 12.0151 20.4255 11.9998C20.4255 11.9896 19.7668 11.6424 18.9549 11.2339L17.4893 10.4986C12.3779 13.0313 12.2706 13.0773 11.9898 13.0773C11.7089 13.0722 11.5711 13.016 9.14041 11.7956C7.73616 11.096 6.5719 10.519 6.55148 10.5241C6.52594 10.5241 5.85701 10.8509 5.06041 11.2441C4.26382 11.6424 3.6102 11.9794 3.61531 11.9947ZM3.54892 17.4534L12 21.6764L20.4511 17.4534L17.4383 15.9471C12.6393 18.3514 12.3504 18.4961 12.0575 18.5048C12.0387 18.5054 12.02 18.5054 12 18.5054C11.6681 18.5054 11.6681 18.5054 9.10977 17.2288L6.55148 15.9471L3.54892 17.4534Z" stroke="#9596AA"/>
</svg>
