<svg width="32" height="32" viewBox="0 0 32 32" fill="none" xmlns="http://www.w3.org/2000/svg">
<path d="M12.4368 25.25C11.7493 25.25 11.8118 25 11.6243 24.375L9.62433 17.8125L24.9368 8.8125" fill="#D5D5D5"/>
<path d="M12.4368 25.25C12.8743 25.25 13.1243 25 13.4368 24.75L16.2493 22.0625L12.7493 19.9375" fill="white"/>
<path d="M12.7505 19.9378L21.188 26.1253C22.063 26.6878 22.813 26.3753 23.063 25.2503L26.5005 9.12527C26.813 7.75027 25.938 7.12527 25.0005 7.56277L4.93796 15.3128C3.62546 15.8128 3.62546 16.6253 4.68796 16.9378L9.87546 18.5628L21.7505 11.0003C22.313 10.6878 22.813 10.8128 22.438 11.2503" fill="white"/>
<rect width="32" height="32" />
</svg>
