<svg width="32" height="32" viewBox="0 0 32 32" fill="none" xmlns="http://www.w3.org/2000/svg">
<g clip-path="url(#clip0_406_4244)">
<path fill-rule="evenodd" clip-rule="evenodd" d="M12.5235 20.0753C11.7676 20.0566 11.0361 19.8033 10.4304 19.3505C9.82473 18.8978 9.37478 18.2679 9.14287 17.5481C9.65758 17.6621 10.191 17.6621 10.7057 17.5481C10.2189 17.4337 9.76096 17.2202 9.36045 16.9207C8.95994 16.6213 8.62551 16.2425 8.37806 15.8079C8.01608 15.2267 7.83121 14.5527 7.84602 13.8682C8.34287 14.1417 8.89744 14.2936 9.46431 14.3116C8.70356 13.788 8.169 12.9961 7.96795 12.0947C7.76468 11.1988 7.91139 10.2591 8.37806 9.46778C9.2911 10.5935 10.4292 11.5162 11.7195 12.1766C13.0098 12.837 14.4238 13.2206 15.871 13.3029C15.871 13.1588 15.871 13.0369 15.8155 12.9039C15.7158 12.1494 15.8554 11.3827 16.2145 10.7118C16.5737 10.0409 17.1343 9.49962 17.8174 9.1642C18.5004 8.82879 19.2715 8.71617 20.022 8.84222C20.7725 8.96827 21.4645 9.32663 22.0005 9.86681C22.0238 9.89248 22.0537 9.91123 22.0869 9.92101C22.1202 9.93079 22.1555 9.93121 22.1889 9.92223C22.9324 9.76413 23.6466 9.49114 24.306 9.11308C24.0412 9.92547 23.505 10.6221 22.7875 11.0861C23.4871 11.0083 24.171 10.8252 24.8159 10.5429L24.4501 11.0861C24.0656 11.5581 23.6224 11.979 23.1311 12.3386C23.1128 12.3504 23.098 12.3669 23.0882 12.3864C23.0785 12.4059 23.0742 12.4277 23.0757 12.4494C23.097 12.9898 23.0747 13.5309 23.0092 14.0677C22.868 15.1895 22.55 16.2819 22.067 17.3043C21.5777 18.3639 20.9146 19.3343 20.1051 20.1751C18.7556 21.5829 17.0138 22.5523 15.1061 22.9572C14.4392 23.1021 13.76 23.1837 13.0777 23.2011C11.0292 23.2711 9.00645 22.7268 7.26964 21.6382L7.18097 21.5828C8.41009 21.7154 9.6528 21.5362 10.7944 21.0618C11.4135 20.8142 11.9953 20.4822 12.5235 20.0753Z" fill="white"/>
</g>
<defs>
<clipPath id="clip0_406_4244">
<rect width="32" height="32" fill="white"/>
</clipPath>
</defs>
</svg>
